# This file uses centimeters as units for non-parametric coordinates.

g default
v 12.978540 148.301941 -5.434458
v 11.633534 149.472946 -5.434458
v 9.850493 149.505432 -5.434458
v 8.463727 148.384186 -5.434458
v 8.122120 146.633896 -5.434458
v 8.985509 145.073486 -5.434458
v 10.649908 144.433121 -5.434458
v 12.336528 145.012451 -5.434458
v 13.256176 146.540359 -5.434458
v 12.978540 148.301941 -0.163017
v 11.633534 149.472946 -0.163018
v 9.850493 149.505432 -0.163018
v 8.463727 148.384186 -0.163017
v 8.122120 146.633881 -0.163017
v 8.985509 145.073486 -0.163018
v 10.649908 144.433121 -0.163018
v 12.336528 145.012451 -0.163017
v 13.256176 146.540359 -0.163017
v 11.578077 149.314896 0.000000
v 12.836244 148.219482 0.000000
v 9.910153 149.345276 0.000000
v 8.612919 148.296417 0.000000
v 8.293368 146.659134 0.000000
v 9.101015 145.199463 0.000000
v 10.657954 144.600449 0.000000
v 12.235683 145.142380 0.000000
v 13.095956 146.571640 0.000000
vt 0.381776 0.986364
vt 0.368025 0.989608
vt 0.368023 0.880801
vt 0.381918 0.877594
vt 0.046399 0.989613
vt 0.046397 0.880807
vt 0.046395 0.772000
vt 0.368021 0.771995
vt 0.046393 0.663193
vt 0.368019 0.663188
vt 0.046391 0.554387
vt 0.368017 0.554382
vt 0.046389 0.445581
vt 0.368016 0.445575
vt 0.046388 0.336774
vt 0.368014 0.336768
vt 0.046386 0.227967
vt 0.368012 0.227962
vt 0.046384 0.119161
vt 0.368010 0.119156
vt 0.046382 0.010355
vt 0.368008 0.010349
vt 0.382046 0.768681
vt 0.382095 0.659675
vt 0.382042 0.550671
vt 0.381911 0.441757
vt 0.381765 0.332988
vt 0.381669 0.224343
vt 0.381667 0.115749
vt 0.381666 0.013968
vt 0.381668 0.122562
vt 0.381763 0.231205
vt 0.381909 0.339976
vt 0.382040 0.448888
vt 0.382093 0.557894
vt 0.382044 0.666899
vt 0.381917 0.775812
vt 0.381774 0.884582
vn 0.474935 0.545503 0.690553
vn 0.474935 0.545503 0.690553
vn 0.474935 0.545503 0.690553
vn 0.474935 0.545503 0.690553
vn 0.656636 0.754207 0.000000
vn 0.656636 0.754207 0.000000
vn 0.656636 0.754207 0.000000
vn 0.656636 0.754207 0.000000
vn 0.018216 0.999834 0.000000
vn 0.018216 0.999834 0.000000
vn 0.018216 0.999834 0.000000
vn 0.018216 0.999834 0.000000
vn -0.628733 0.777621 0.000000
vn -0.628733 0.777621 0.000000
vn -0.628733 0.777621 0.000000
vn -0.628733 0.777621 0.000000
vn -0.981482 0.191556 0.000000
vn -0.981482 0.191556 0.000000
vn -0.981482 0.191556 0.000000
vn -0.981482 0.191556 0.000000
vn -0.874990 -0.484142 -0.000002
vn -0.874990 -0.484142 -0.000002
vn -0.874990 -0.484142 -0.000002
vn -0.874990 -0.484142 -0.000002
vn -0.359083 -0.933306 0.000000
vn -0.359083 -0.933306 0.000000
vn -0.359083 -0.933306 0.000000
vn -0.359083 -0.933306 0.000000
vn 0.324857 -0.945763 0.000000
vn 0.324857 -0.945763 0.000000
vn 0.324857 -0.945763 0.000000
vn 0.324857 -0.945763 0.000000
vn 0.856774 -0.515692 0.000000
vn 0.856774 -0.515692 0.000000
vn 0.856774 -0.515692 0.000000
vn 0.856774 -0.515692 0.000000
vn 0.987807 0.155684 0.000000
vn 0.987807 0.155684 0.000000
vn 0.987807 0.155684 0.000000
vn 0.987807 0.155684 0.000000
vn 0.013036 0.715597 0.698392
vn 0.013036 0.715597 0.698392
vn 0.013036 0.715597 0.698392
vn 0.013036 0.715597 0.698392
vn -0.445902 0.551494 0.705000
vn -0.445902 0.551494 0.705000
vn -0.445902 0.551494 0.705000
vn -0.445902 0.551494 0.705000
vn -0.693534 0.135357 0.707594
vn -0.693534 0.135357 0.707594
vn -0.693534 0.135357 0.707594
vn -0.693534 0.135357 0.707594
vn -0.620539 -0.343351 0.705011
vn -0.620539 -0.343351 0.705011
vn -0.620539 -0.343351 0.705011
vn -0.620539 -0.343351 0.705011
vn -0.257007 -0.668000 0.698372
vn -0.257007 -0.668000 0.698372
vn -0.257007 -0.668000 0.698372
vn -0.257007 -0.668000 0.698372
vn 0.234951 -0.684017 0.690593
vn 0.234951 -0.684017 0.690593
vn 0.234951 -0.684017 0.690593
vn 0.234951 -0.684017 0.690593
vn 0.623955 -0.375559 0.685299
vn 0.623955 -0.375559 0.685299
vn 0.623955 -0.375559 0.685299
vn 0.623955 -0.375559 0.685299
vn 0.719395 0.113381 0.685285
vn 0.719396 0.113381 0.685285
vn 0.719395 0.113381 0.685285
vn 0.719396 0.113381 0.685285
s off
g polySurface2
f 20/1/1 10/2/2 11/3/3 19/38/4
f 1/5/5 2/6/6 11/3/7 10/2/8
f 2/6/9 3/7/10 12/8/11 11/3/12
f 3/7/13 4/9/14 13/10/15 12/8/16
f 4/9/17 5/11/18 14/12/19 13/10/20
f 5/11/21 6/13/22 15/14/23 14/12/24
f 6/13/25 7/15/26 16/16/27 15/14/28
f 7/15/29 8/17/30 17/18/31 16/16/32
f 8/17/33 9/19/34 18/20/35 17/18/36
f 9/19/37 1/21/38 10/22/39 18/20/40
f 19/4/41 11/3/42 12/8/43 21/37/44
f 21/23/45 12/8/46 13/10/47 22/36/48
f 22/24/49 13/10/50 14/12/51 23/35/52
f 23/25/53 14/12/54 15/14/55 24/34/56
f 24/26/57 15/14/58 16/16/59 25/33/60
f 25/27/61 16/16/62 17/18/63 26/32/64
f 26/28/65 17/18/66 18/20/67 27/31/68
f 10/22/69 20/30/70 27/29/71 18/20/72
