# This file uses centimeters as units for non-parametric coordinates.

g default
v 12.978540 148.301956 5.434458
v 11.633534 149.472961 5.434458
v 9.850493 149.505447 5.434458
v 8.463727 148.384201 5.434458
v 8.122120 146.633896 5.434458
v 8.985509 145.073502 5.434458
v 10.649908 144.433136 5.434458
v 12.336528 145.012466 5.434458
v 13.256176 146.540375 5.434458
v 12.836244 148.219482 0.000000
v 12.978540 148.301956 0.163017
v 11.633534 149.472961 0.163018
v 11.578077 149.314896 0.000000
v 9.850493 149.505447 0.163018
v 9.910153 149.345276 0.000000
v 8.463727 148.384201 0.163017
v 8.612919 148.296417 0.000000
v 8.122120 146.633896 0.163017
v 8.293368 146.659134 0.000000
v 8.985509 145.073502 0.163018
v 9.101015 145.199463 0.000000
v 10.649908 144.433136 0.163018
v 10.657954 144.600449 0.000000
v 12.336528 145.012466 0.163017
v 12.235683 145.142380 0.000000
v 13.256176 146.540375 0.163017
v 13.095956 146.571640 0.000000
vt 0.046101 0.989608
vt 0.032350 0.986362
vt 0.032364 0.884580
vt 0.046116 0.880801
vt 0.367742 0.880844
vt 0.367727 0.989651
vt 0.046130 0.771995
vt 0.367756 0.772037
vt 0.046144 0.663188
vt 0.367771 0.663231
vt 0.046159 0.554382
vt 0.367785 0.554425
vt 0.046174 0.445575
vt 0.367800 0.445618
vt 0.046188 0.336769
vt 0.367814 0.336811
vt 0.046203 0.227962
vt 0.367829 0.228005
vt 0.046217 0.119155
vt 0.367843 0.119198
vt 0.046231 0.010349
vt 0.367857 0.010392
vt 0.032234 0.775810
vt 0.032119 0.666897
vt 0.032083 0.557893
vt 0.032148 0.448886
vt 0.032292 0.339974
vt 0.032451 0.231204
vt 0.032559 0.122560
vt 0.032574 0.013966
vt 0.032560 0.115747
vt 0.032546 0.224341
vt 0.032438 0.332986
vt 0.032278 0.441756
vt 0.032135 0.550669
vt 0.032069 0.659673
vt 0.032106 0.768679
vt 0.032220 0.877592
vn 0.474935 0.545503 -0.690553
vn 0.474935 0.545503 -0.690553
vn 0.474935 0.545503 -0.690553
vn 0.474935 0.545503 -0.690553
vn 0.656637 0.754207 0.000000
vn 0.656637 0.754207 0.000000
vn 0.656637 0.754207 0.000000
vn 0.656637 0.754207 0.000000
vn 0.018216 0.999834 0.000000
vn 0.018216 0.999834 0.000000
vn 0.018216 0.999834 0.000000
vn 0.018216 0.999834 0.000000
vn -0.628733 0.777621 0.000000
vn -0.628733 0.777621 0.000000
vn -0.628733 0.777621 0.000000
vn -0.628733 0.777621 0.000000
vn -0.981482 0.191555 0.000000
vn -0.981482 0.191555 0.000000
vn -0.981482 0.191555 0.000000
vn -0.981482 0.191555 0.000000
vn -0.874989 -0.484144 0.000000
vn -0.874989 -0.484144 0.000000
vn -0.874989 -0.484144 0.000000
vn -0.874989 -0.484144 0.000000
vn -0.359083 -0.933306 0.000000
vn -0.359083 -0.933306 0.000000
vn -0.359083 -0.933306 0.000000
vn -0.359083 -0.933306 0.000000
vn 0.324856 -0.945763 0.000000
vn 0.324856 -0.945763 0.000000
vn 0.324856 -0.945763 0.000000
vn 0.324856 -0.945763 0.000000
vn 0.856774 -0.515692 0.000000
vn 0.856774 -0.515692 0.000000
vn 0.856774 -0.515692 0.000000
vn 0.856774 -0.515692 0.000000
vn 0.987807 0.155684 0.000000
vn 0.987807 0.155684 0.000000
vn 0.987807 0.155684 0.000000
vn 0.987807 0.155684 0.000000
vn 0.013036 0.715617 -0.698372
vn 0.013036 0.715617 -0.698372
vn 0.013036 0.715617 -0.698372
vn 0.013036 0.715617 -0.698372
vn -0.445890 0.551479 -0.705020
vn -0.445890 0.551479 -0.705020
vn -0.445890 0.551479 -0.705020
vn -0.445890 0.551479 -0.705020
vn -0.693534 0.135357 -0.707594
vn -0.693534 0.135357 -0.707594
vn -0.693534 0.135357 -0.707594
vn -0.693534 0.135357 -0.707594
vn -0.620548 -0.343356 -0.705001
vn -0.620548 -0.343356 -0.705001
vn -0.620548 -0.343356 -0.705001
vn -0.620548 -0.343356 -0.705001
vn -0.257028 -0.668054 -0.698313
vn -0.257028 -0.668054 -0.698313
vn -0.257028 -0.668054 -0.698313
vn -0.257028 -0.668054 -0.698313
vn 0.234970 -0.684073 -0.690532
vn 0.234970 -0.684073 -0.690532
vn 0.234970 -0.684073 -0.690532
vn 0.234970 -0.684073 -0.690532
vn 0.623964 -0.375564 -0.685289
vn 0.623964 -0.375564 -0.685289
vn 0.623964 -0.375564 -0.685289
vn 0.623964 -0.375564 -0.685289
vn 0.719381 0.113379 -0.685300
vn 0.719381 0.113379 -0.685300
vn 0.719381 0.113379 -0.685300
vn 0.719381 0.113379 -0.685300
s off
g polySurface1
f 11/1/1 10/2/2 13/3/3 12/4/4
f 11/1/5 12/4/6 2/5/7 1/6/8
f 12/4/9 14/7/10 3/8/11 2/5/12
f 14/7/13 16/9/14 4/10/15 3/8/16
f 16/9/17 18/11/18 5/12/19 4/10/20
f 18/11/21 20/13/22 6/14/23 5/12/24
f 20/13/25 22/15/26 7/16/27 6/14/28
f 22/15/29 24/17/30 8/18/31 7/16/32
f 24/17/33 26/19/34 9/20/35 8/18/36
f 26/19/37 11/21/38 1/22/39 9/20/40
f 12/4/41 13/38/42 15/23/43 14/7/44
f 14/7/45 15/37/46 17/24/47 16/9/48
f 16/9/49 17/36/50 19/25/51 18/11/52
f 18/11/53 19/35/54 21/26/55 20/13/56
f 20/13/57 21/34/58 23/27/59 22/15/60
f 22/15/61 23/33/62 25/28/63 24/17/64
f 24/17/65 25/32/66 27/29/67 26/19/68
f 10/30/69 11/21/70 26/19/71 27/31/72
