# This file uses centimeters as units for non-parametric coordinates.

g default
v 0.000000 0.000000 -0.038521
v 3.038599 10.625731 -3.077122
v 0.000000 10.625731 -4.335751
v -3.038599 10.625731 -3.077122
v -4.297227 10.625731 -0.038521
v -3.038599 10.625731 3.000076
v 0.000000 10.625731 4.258707
v 3.038599 10.625731 3.000076
v 4.297228 10.625731 -0.038521
v 3.606842 19.653185 -3.645363
v 5.100845 19.653185 -0.038521
v 3.606842 19.653185 3.568319
v 0.000000 19.653185 5.062323
v -3.606842 19.653185 3.568319
v -5.100845 19.653185 -0.038521
v -3.606842 19.653185 -3.645363
v 0.000000 19.653185 -5.139366
v 3.919475 20.830299 -3.958389
v 5.542975 20.830299 -0.038914
v 3.919476 20.830299 3.880560
v 0.000000 20.830299 5.504059
v -3.919476 20.830299 3.880560
v -5.542975 20.830299 -0.038914
v -3.919475 20.830299 -3.958389
v 0.000000 20.830299 -5.581890
v 2.842971 22.332981 -2.881886
v 0.000000 22.332981 -4.059483
v -2.842971 22.332981 -2.881886
v -4.020568 22.332981 -0.038914
v -2.842971 22.332981 2.804058
v 0.000000 22.332981 3.981653
v 2.842971 22.332981 2.804058
v 4.020568 22.332981 -0.038914
v 1.544202 21.768801 -1.583118
v 0.000000 21.768801 -2.222748
v 0.000000 21.768801 -0.038914
v -1.544201 21.768801 -1.583118
v -2.183830 21.768801 -0.038914
v -1.544201 21.768801 1.505287
v 0.000000 21.768801 2.144917
v 1.544202 21.768801 1.505287
v 2.183831 21.768801 -0.038914
v 3.728850 0.722559 -3.767372
v 3.557464 0.000000 -3.595989
v 0.000000 0.722559 -5.311913
v 0.000000 0.000000 -5.069538
v -3.728850 0.722559 -3.767372
v -3.557464 0.000000 -3.595989
v -5.273390 0.722559 -0.038521
v -5.031014 0.000000 -0.038521
v -3.728850 0.722559 3.690325
v -3.557464 0.000000 3.518940
v 0.000000 0.722559 5.234867
v 0.000000 0.000000 4.992491
v 3.728850 0.722559 3.690325
v 3.557465 0.000000 3.518940
v 5.273390 0.722559 -0.038521
v 5.031014 0.000000 -0.038521
v 3.170228 24.349192 -3.148232
v 0.000000 24.505404 -4.453083
v -3.162357 23.405600 -3.210232
v -4.484111 23.648983 0.000816
v -3.171907 22.964035 3.151527
v 0.000000 22.194168 4.355177
v 3.162124 22.653406 3.072010
v 4.486686 23.648848 0.000801
v 3.893524 23.760658 -3.872913
v 5.516503 22.973900 -0.005459
v 3.910320 21.830608 3.802320
v 0.000000 21.331953 5.404320
v -3.905219 22.201464 3.873638
v -5.518305 22.973799 -0.005470
v -3.891865 22.761419 -3.947437
v 0.000000 23.952707 -5.478397
v 0.110050 21.640198 -0.225521
v 0.177684 21.640198 -0.062244
v 0.110050 21.640198 0.101040
v -0.053232 21.640198 0.168674
v -0.216513 21.640198 -0.225521
v -0.284147 21.640198 -0.062244
v -0.216513 21.640198 0.101040
v -0.053232 21.640198 -0.293156
v 0.158835 23.357990 -0.396000
v -0.053232 23.302406 -0.464024
v -0.053232 23.492178 -0.231785
v -0.265298 23.357996 -0.395992
v -0.353138 23.492180 -0.231773
v -0.265297 23.626352 -0.067570
v -0.053232 23.681942 0.000465
v 0.158834 23.626371 -0.067547
v 0.246675 23.492180 -0.231773
v 0.136848 22.578230 -0.101048
v -0.053232 22.545393 -0.172604
v -0.243311 22.578234 -0.101040
v -0.322045 22.657515 0.071720
v -0.243311 22.736788 0.244469
v -0.053232 22.769629 0.316036
v 0.136848 22.736795 0.244484
v 0.215582 22.657515 0.071720
vt 0.864780 0.815899
vt 0.320694 0.563293
vt 0.586143 0.561535
vt 0.591724 0.671349
vt 0.599885 0.782327
vt 0.608732 0.895872
vt 0.593397 0.121569
vt 0.587625 0.233087
vt 0.585550 0.342850
vt 0.583919 0.451953
vt 0.622283 0.560977
vt 0.882050 0.876379
vt 0.835732 0.872588
vt 0.804626 0.837923
vt 0.807193 0.789900
vt 0.843530 0.756232
vt 0.894389 0.759324
vt 0.926760 0.798711
vt 0.919597 0.847559
vt 0.022378 0.459818
vt 0.024678 0.573857
vt 0.022389 0.345965
vt 0.024644 0.232141
vt 0.028787 0.117637
vt 0.043379 0.920472
vt 0.036139 0.803225
vt 0.029308 0.688182
vt 0.916591 0.431085
vt 0.996879 0.350791
vt 0.996874 0.237242
vt 0.916580 0.156954
vt 0.803031 0.156959
vt 0.722743 0.237253
vt 0.722748 0.350802
vt 0.859811 0.294022
vt 0.803042 0.431089
vt 0.318057 0.455858
vt 0.317560 0.348417
vt 0.318571 0.241926
vt 0.320610 0.137361
vt 0.323040 0.037010
vt 0.331945 0.773686
vt 0.325491 0.669652
vt 0.907622 0.988065
vt 0.707907 0.558824
vt 0.628078 0.670156
vt 0.636257 0.780362
vt 0.648433 0.898298
vt 0.629959 0.123199
vt 0.623673 0.234101
vt 0.622363 0.343156
vt 0.619933 0.451759
vt 1.000000 0.905048
vt 0.999987 0.783792
vt 0.691052 0.667424
vt 0.925115 0.696480
vt 0.665472 0.776437
vt 0.810190 0.681565
vt 0.664464 0.895416
vt 0.717793 0.754206
vt 0.669748 0.126618
vt 0.718932 0.873755
vt 0.686452 0.235616
vt 0.787667 0.978002
vt 0.679892 0.343771
vt 0.711037 0.451155
vt 0.896117 0.928842
vt 0.811892 0.921993
vt 0.752505 0.859273
vt 0.755295 0.769535
vt 0.821106 0.703648
vt 0.919743 0.707544
vt 0.983509 0.785416
vt 0.966053 0.878560
vt 0.931363 0.025057
vt 0.924854 0.027111
vt 0.925716 0.018236
vt 0.971486 0.025043
vt 0.965174 0.021899
vt 0.958538 0.019179
vt 0.951423 0.018159
vt 0.944309 0.019183
vt 0.937674 0.021908
vt 0.935005 0.050364
vt 0.973777 0.051647
vt 0.967857 0.050357
vt 0.962469 0.048112
vt 0.957126 0.046145
vt 0.951430 0.045376
vt 0.945734 0.046147
vt 0.940391 0.048116
vt 0.935346 0.078799
vt 0.930112 0.079156
vt 0.967529 0.078792
vt 0.962287 0.078171
vt 0.956919 0.077716
vt 0.951437 0.077604
vt 0.945955 0.077718
vt 0.940587 0.078176
vt 0.013796 0.803972
vt 0.006962 0.689156
vt 0.009587 0.003031
vt 0.006560 0.117436
vt 0.002312 0.231613
vt 0.000018 0.345740
vt 0.000000 0.460017
vt 0.002309 0.574489
vt 0.703400 0.774386
vt 0.725298 0.667313
vt 0.703993 0.878600
vt 0.705936 0.128868
vt 0.719030 0.236660
vt 0.715524 0.343388
vt 0.741444 0.451380
vt 0.740392 0.558794
vt 0.697998 0.023421
vt 0.657365 0.008028
vt 0.641132 0.005415
vt 0.032269 0.000000
vt 0.338867 0.873685
vt 0.020374 0.918178
vt 0.600201 0.007841
vt 0.929085 0.051655
vt 0.977999 0.027126
vt 0.934556 0.019079
vt 0.932573 0.012586
vt 0.926574 0.009395
vt 0.920072 0.011381
vt 0.916876 0.017383
vt 0.918857 0.023894
vt 0.972763 0.079147
vn 0.707071 0.010070 -0.707071
vn 0.000000 0.010070 -0.999949
vn -0.000000 -0.128356 -0.991728
vn 0.701264 -0.128342 -0.701254
vn -0.707071 0.010070 -0.707071
vn -0.701264 -0.128342 -0.701254
vn -0.999949 0.010070 -0.000000
vn -0.991734 -0.128308 0.000010
vn -0.707071 0.010070 0.707071
vn -0.701260 -0.128274 0.701270
vn 0.000000 0.010070 0.999949
vn -0.000000 -0.128260 0.991741
vn 0.707071 0.010070 0.707071
vn 0.701260 -0.128274 0.701270
vn 0.999949 0.010070 -0.000000
vn 0.991734 -0.128308 0.000010
vn -0.168301 0.971262 0.168301
vn 0.000000 0.971262 0.238014
vn 0.000000 1.000000 -0.000000
vn 0.168301 0.971262 0.168301
vn 0.238014 0.971262 -0.000000
vn 0.168301 0.971262 -0.168301
vn 0.000000 0.971262 -0.238014
vn -0.168301 0.971262 -0.168301
vn -0.238014 0.971262 0.000000
vn 0.683707 -0.082418 -0.725087
vn 0.991371 -0.112885 -0.066633
vn 0.743757 -0.150698 0.651241
vn -0.017255 -0.170513 0.985204
vn -0.745690 -0.147072 0.649858
vn -0.992125 -0.123234 -0.022408
vn -0.681766 -0.102362 -0.724374
vn 0.029234 -0.081237 -0.996266
vn -0.561478 0.536010 0.630424
vn -0.052044 0.537643 0.841565
vn 0.508196 0.632750 0.584264
vn 0.702534 0.710826 0.034243
vn 0.473013 0.828381 -0.300073
vn 0.031555 0.949373 -0.312562
vn -0.423819 0.871632 -0.246241
vn -0.736371 0.666807 0.114566
vn 0.705450 0.068420 -0.705450
vn 0.245484 -0.937803 -0.245484
vn 0.000000 -0.937803 -0.347167
vn 0.000000 0.068420 -0.997657
vn 0.997657 0.068420 0.000000
vn 0.347167 -0.937803 0.000000
vn -0.245484 -0.937804 -0.245484
vn -0.705450 0.068420 -0.705450
vn -0.347167 -0.937804 0.000000
vn -0.997657 0.068420 -0.000000
vn -0.245484 -0.937803 0.245484
vn -0.705450 0.068420 0.705450
vn 0.000000 -0.937803 0.347167
vn 0.000000 0.068420 0.997657
vn 0.245484 -0.937804 0.245484
vn 0.705450 0.068420 0.705450
vn 0.000000 -1.000000 0.000000
vn -0.117601 0.944740 0.306001
vn -0.209155 0.880844 0.424697
vn -0.158873 0.875780 0.455816
vn 0.007729 0.968908 0.247299
vn 0.028119 0.996095 0.083692
vn -0.014317 0.933806 0.357492
vn 0.051092 0.832740 0.551303
vn 0.096341 0.896639 0.432154
vn 0.025537 0.280266 -0.959583
vn 0.667804 0.256106 -0.698891
vn 0.954777 0.294801 -0.038647
vn 0.675572 0.387401 0.627314
vn -0.003941 0.445295 0.895375
vn -0.671501 0.374418 0.639450
vn -0.941558 0.336776 -0.007140
vn -0.662965 0.238743 -0.709563
vn 0.000011 0.774358 -0.632748
vn -0.000001 0.774357 -0.632750
vn -0.000000 0.774366 -0.632738
vn -0.000012 0.774358 -0.632747
vn -0.000019 0.774367 -0.632737
vn -0.000010 0.774372 -0.632730
vn -0.000001 0.774379 -0.632723
vn 0.000010 0.774375 -0.632726
vn 0.000019 0.774362 -0.632742
vn 0.733795 -0.098918 -0.672132
vn -0.000017 -0.104862 -0.994487
vn -0.000023 -0.361520 -0.932364
vn 0.744426 -0.254441 -0.617324
vn -0.733795 -0.098917 -0.672131
vn -0.744424 -0.254441 -0.617327
vn -0.995183 -0.041791 0.088677
vn -0.994111 0.005213 0.108237
vn -0.656177 0.061795 0.752073
vn -0.643566 0.239270 0.727030
vn -0.000038 0.113091 0.993585
vn -0.000050 0.324572 0.945861
vn 0.656174 0.061793 0.752075
vn 0.643557 0.239268 0.727039
vn 0.995184 -0.041793 0.088674
vn 0.994112 0.005210 0.108231
vn 0.665899 0.080228 -0.741715
vn -0.000010 0.126359 -0.991985
vn -0.665899 0.080231 -0.741715
vn -0.999495 -0.030473 -0.009036
vn -0.676423 -0.112328 0.727897
vn -0.000020 -0.134007 0.990980
vn 0.676423 -0.112333 0.727897
vn 0.999495 -0.030475 -0.009034
s 1
g BougieBigMid1
f 2/2/1 3/37/2 17/10/3 10/3/4
f 3/37/2 4/38/5 16/9/6 17/10/3
f 4/38/5 5/39/7 15/8/8 16/9/6
f 5/39/7 6/40/9 14/7/10 15/8/8
f 6/40/9 7/41/11 13/122/12 14/7/10
f 7/120/11 8/42/13 12/5/14 13/6/12
f 8/42/13 9/43/15 11/4/16 12/5/14
f 9/43/15 2/2/1 10/3/4 11/4/16
f 34/12/17 35/13/18 36/1/19
f 35/13/18 37/14/20 36/1/19
f 37/14/20 38/15/21 36/1/19
f 38/15/21 39/16/22 36/1/19
f 39/16/22 40/17/23 36/1/19
f 40/17/23 41/18/24 36/1/19
f 41/18/24 42/19/25 36/1/19
f 42/19/25 34/12/17 36/1/19
f 11/4/16 10/3/4 18/11/26 19/46/27
f 12/5/14 11/4/16 19/46/27 20/47/28
f 13/6/12 12/5/14 20/47/28 21/48/29
f 14/7/10 13/122/12 21/118/29 22/49/30
f 15/8/8 14/7/10 22/49/30 23/50/31
f 16/9/6 15/8/8 23/50/31 24/51/32
f 17/10/3 16/9/6 24/51/32 25/52/33
f 10/3/4 17/10/3 25/52/33 18/11/26
f 26/67/34 27/68/35 35/13/18 34/12/17
f 27/68/35 28/69/36 37/14/20 35/13/18
f 28/69/36 29/70/37 38/15/21 37/14/20
f 29/70/37 30/71/38 39/16/22 38/15/21
f 30/71/38 31/72/39 40/17/23 39/16/22
f 31/72/39 32/73/40 41/18/24 40/17/23
f 32/73/40 33/74/41 42/19/25 41/18/24
f 33/74/41 26/67/34 34/12/17 42/19/25
f 43/21/42 44/107/43 46/106/44 45/20/45
f 44/107/43 43/21/42 57/27/46 58/101/47
f 45/20/45 46/106/44 48/105/48 47/22/49
f 47/22/49 48/105/48 50/104/50 49/23/51
f 49/23/51 50/104/50 52/103/52 51/24/53
f 51/24/53 52/103/52 54/102/54 53/119/55
f 53/25/55 54/121/54 56/100/56 55/26/57
f 55/26/57 56/100/56 58/101/47 57/27/46
f 46/29/44 44/28/43 1/35/58
f 48/30/48 46/29/44 1/35/58
f 50/31/50 48/30/48 1/35/58
f 52/32/52 50/31/50 1/35/58
f 54/33/54 52/32/52 1/35/58
f 56/34/56 54/33/54 1/35/58
f 58/36/47 56/34/56 1/35/58
f 44/28/43 58/36/47 1/35/58
f 43/21/42 45/20/45 3/37/2 2/2/1
f 45/20/45 47/22/49 4/38/5 3/37/2
f 47/22/49 49/23/51 5/39/7 4/38/5
f 49/23/51 51/24/53 6/40/9 5/39/7
f 51/24/53 53/119/55 7/41/11 6/40/9
f 53/25/55 55/26/57 8/42/13 7/120/11
f 55/26/57 57/27/46 9/43/15 8/42/13
f 57/27/46 43/21/42 2/2/1 9/43/15
f 66/53/59 59/44/60 26/67/34 33/74/41
f 59/44/60 60/64/61 27/68/35 26/67/34
f 60/64/61 61/62/62 28/69/36 27/68/35
f 61/62/62 62/60/63 29/70/37 28/69/36
f 62/60/63 63/58/64 30/71/38 29/70/37
f 63/58/64 64/56/65 31/72/39 30/71/38
f 64/56/65 65/54/66 32/73/40 31/72/39
f 65/54/66 66/53/59 33/74/41 32/73/40
f 74/66/67 67/45/68 18/11/26 25/52/33
f 67/45/68 68/55/69 19/46/27 18/11/26
f 68/55/69 69/57/70 20/47/28 19/46/27
f 69/57/70 70/59/71 21/48/29 20/47/28
f 70/117/71 71/61/72 22/49/30 21/118/29
f 71/61/72 72/63/73 23/50/31 22/49/30
f 72/63/73 73/65/74 24/51/32 23/50/31
f 73/65/74 74/66/67 25/52/33 24/51/32
f 59/115/60 66/109/59 68/55/69 67/45/68
f 66/109/59 65/108/66 69/57/70 68/55/69
f 65/108/66 64/110/65 70/59/71 69/57/70
f 64/116/65 63/111/64 71/61/72 70/117/71
f 63/111/64 62/112/63 72/63/73 71/61/72
f 62/112/63 61/113/62 73/65/74 72/63/73
f 61/113/62 60/114/61 74/66/67 73/65/74
f 60/114/61 59/115/60 67/45/68 74/66/67
s 4
f 83/75/75 84/76/76 85/77/77
f 84/76/76 86/130/78 85/77/77
f 86/130/78 87/129/79 85/77/77
f 87/129/79 88/128/80 85/77/77
f 88/128/80 89/127/81 85/77/77
f 89/127/81 90/126/82 85/77/77
f 90/126/82 91/125/83 85/77/77
f 91/125/83 83/75/75 85/77/77
s 5
f 92/84/84 93/123/85 84/76/86 83/75/87
f 93/85/85 94/86/88 86/78/89 84/124/86
f 94/86/88 95/87/90 87/79/91 86/78/89
f 95/87/90 96/88/92 88/80/93 87/79/91
f 96/88/92 97/89/94 89/81/95 88/80/93
f 97/89/94 98/90/96 90/82/97 89/81/95
f 98/90/96 99/91/98 91/83/99 90/82/97
f 99/91/98 92/84/84 83/75/87 91/83/99
f 75/92/100 82/93/101 93/123/85 92/84/84
f 82/131/101 79/94/102 94/86/88 93/85/85
f 79/94/102 80/95/103 95/87/90 94/86/88
f 80/95/103 81/96/104 96/88/92 95/87/90
f 81/96/104 78/97/105 97/89/94 96/88/92
f 78/97/105 77/98/106 98/90/96 97/89/94
f 77/98/106 76/99/107 99/91/98 98/90/96
f 76/99/107 75/92/100 92/84/84 99/91/98
