# This file uses centimeters as units for non-parametric coordinates.

g default
v 163.632201 109.365196 152.721417
v 163.632201 360.286324 152.721417
v 163.632201 360.286324 -110.080434
v 163.632201 109.365196 -110.080434
v 163.632201 109.365196 10.809460
v 163.632201 109.365196 31.831512
v 163.632201 360.286324 10.809460
v 163.632201 360.286324 31.831512
v 161.632205 100.365179 161.721408
v 161.632205 369.286317 161.721408
v 161.632205 100.365179 -119.080432
v 161.632205 369.286317 -119.080432
v 161.632205 100.365179 10.809454
v 161.632205 100.365179 31.831506
v 161.632205 369.286317 10.809454
v 161.632205 369.286317 31.831506
v 162.632110 360.286324 152.721417
v 161.632205 361.286334 153.721316
v 161.632205 108.365301 153.721316
v 162.632110 109.365196 152.721417
v 162.632110 109.365196 -110.080434
v 161.632205 108.365301 -111.080341
v 161.632205 361.286334 -111.080341
v 162.632110 360.286324 -110.080434
v 161.632205 361.286334 11.809360
v 162.632110 360.286324 10.809460
v 162.632110 109.365196 10.809460
v 161.632205 108.365301 11.809360
v 161.632205 108.365301 30.831611
v 162.632110 109.365196 31.831512
v 162.632110 360.286324 31.831512
v 161.632205 361.286334 30.831611
v 161.632205 100.365179 20.369454
v 162.722243 100.365179 21.320477
v 161.632205 100.365179 22.271494
v 161.632205 109.265236 20.369475
v 162.722243 109.315065 21.320492
v 161.632205 109.265236 22.271505
v 161.632205 360.386309 20.369475
v 162.722243 360.336447 21.320492
v 161.632205 360.386309 22.271505
v 161.632205 369.286317 20.369454
v 162.722243 369.286317 21.320477
v 161.632205 369.286317 22.271494
vt 0.991473 0.947368
vt 0.964754 0.117003
vt 0.011120 0.091268
vt 0.037682 0.921638
vt 0.010821 0.947368
vt 0.037939 0.116987
vt 0.991610 0.091269
vt 0.964648 0.921656
vt 0.957890 0.123065
vt 0.960192 0.917634
vt 0.044546 0.915578
vt 0.042395 0.121008
vt 0.450405 0.915553
vt 0.042108 0.917564
vt 0.044957 0.122849
vt 0.452841 0.121895
vt 0.552031 0.123156
vt 0.960328 0.121077
vt 0.957630 0.915793
vt 0.549745 0.916815
vt 0.450400 0.123875
vt 0.452972 0.917385
vt 0.552186 0.914834
vt 0.549464 0.121324
vt 0.486071 0.092471
vt 0.548469 0.092038
vt 0.453961 0.946672
vt 0.516521 0.946245
vt 0.454031 0.092548
vt 0.486021 0.120506
vt 0.516125 0.092186
vt 0.545002 0.117322
vt 0.457268 0.117841
vt 0.486193 0.918368
vt 0.516243 0.120349
vt 0.545319 0.920870
vt 0.457434 0.921389
vt 0.486304 0.946531
vt 0.516566 0.918209
vt 0.548561 0.946162
vt 0.490932 0.092492
vt 0.511383 0.120554
vt 0.511706 0.918074
vt 0.511661 0.946225
vt 0.432468 0.136787
vt 0.432754 0.903033
vt 0.063588 0.903171
vt 0.063303 0.136925
vt 0.937619 0.137597
vt 0.937904 0.903843
vt 0.568739 0.903981
vt 0.568454 0.137734
vt 0.491053 0.918164
vt 0.491169 0.946472
vt 0.490881 0.120642
vt 0.511259 0.092246
vn -1.000000 0.000000 0.000000
vn -1.000000 0.000000 0.000000
vn -1.000000 0.000000 0.000000
vn -1.000000 0.000000 0.000000
vn -1.000000 0.000000 0.000000
vn -1.000000 0.000000 0.000000
vn -1.000000 0.000000 0.000000
vn -1.000000 0.000000 0.000000
vn -0.707140 -0.707074 0.000000
vn -0.707140 -0.707074 0.000000
vn -0.707140 -0.707073 0.000000
vn -0.707140 -0.707074 0.000000
vn -0.707105 0.000000 -0.707109
vn -0.707105 0.000000 -0.707109
vn -0.707105 0.000000 -0.707109
vn -0.707105 0.000000 -0.707109
vn -0.707104 0.707110 0.000000
vn -0.707104 0.707110 0.000000
vn -0.707104 0.707110 0.000000
vn -0.707104 0.707110 0.000000
vn -0.707104 0.707110 0.000000
vn -0.707104 0.707110 0.000000
vn -0.707104 0.707110 0.000000
vn -0.707104 0.707110 0.000000
vn -0.707107 0.000000 0.707106
vn -0.707107 0.000000 0.707106
vn -0.707107 0.000000 0.707106
vn -0.707107 0.000000 0.707106
vn -0.707143 -0.707070 0.000000
vn -0.707143 -0.707070 0.000000
vn -0.707143 -0.707070 0.000000
vn -0.707143 -0.707070 0.000000
vn -0.707105 0.000000 -0.707109
vn -0.707105 0.000000 -0.707109
vn -0.707105 0.000000 -0.707109
vn -0.707105 0.000000 -0.707109
vn -0.707105 0.000000 0.707108
vn -0.707105 0.000000 0.707108
vn -0.707105 0.000000 0.707108
vn -0.707105 0.000000 0.707108
vn -1.000000 0.000000 -0.000000
vn -1.000000 0.000000 -0.000000
vn -1.000000 0.000000 -0.000000
vn -1.000000 0.000000 -0.000000
vn -1.000000 0.000000 -0.000000
vn -1.000000 0.000000 -0.000000
vn -1.000000 0.000000 -0.000000
vn -1.000000 0.000000 -0.000000
vn -1.000000 0.000000 0.000000
vn -1.000000 0.000000 0.000000
vn -1.000000 0.000000 0.000000
vn -1.000000 0.000000 0.000000
vn -1.000000 0.000000 -0.000000
vn -1.000000 0.000000 0.000000
vn -1.000000 0.000000 0.000000
vn -1.000000 0.000000 -0.000000
vn 0.000000 0.000000 -1.000000
vn 0.000000 0.000000 -1.000000
vn 0.000000 0.000000 -1.000000
vn 0.000000 0.000000 -1.000000
vn 0.000000 0.000000 1.000000
vn 0.000000 0.000000 1.000000
vn 0.000000 0.000000 1.000000
vn 0.000000 0.000000 1.000000
vn 0.000000 -1.000000 0.000000
vn 0.000000 -1.000000 0.000000
vn 0.000000 -1.000000 0.000000
vn 0.000000 -1.000000 0.000000
vn 0.000000 1.000000 0.000000
vn 0.000000 1.000000 0.000000
vn 0.000000 1.000000 0.000000
vn 0.000000 1.000000 0.000000
vn 0.000000 1.000000 0.000000
vn 0.000000 1.000000 0.000000
vn 0.000000 1.000000 0.000000
vn 0.000000 1.000000 0.000000
vn 0.000000 -1.000000 0.000000
vn 0.000000 -1.000000 0.000000
vn 0.000000 -1.000000 0.000000
vn 0.000000 -1.000000 0.000000
vn 0.000000 0.000000 -1.000000
vn 0.000000 0.000000 -1.000000
vn 0.000000 0.000000 -1.000000
vn 0.000000 0.000000 -1.000000
vn 0.000000 0.000000 1.000000
vn 0.000000 0.000000 1.000000
vn 0.000000 0.000000 1.000000
vn 0.000000 0.000000 1.000000
vn -1.000000 0.000000 0.000000
vn -1.000000 0.000000 0.000000
vn -1.000000 0.000000 0.000000
vn -1.000000 0.000000 -0.000000
vn -1.000000 0.000000 0.000000
vn -1.000000 0.000000 -0.000000
vn -1.000000 0.000000 0.000000
vn -1.000000 0.000000 0.000000
vn -0.657422 -0.000001 0.753523
vn -0.657422 -0.000001 0.753523
vn -0.657421 -0.000000 0.753524
vn -0.657421 -0.000000 0.753524
vn -0.657420 0.000001 -0.753524
vn -0.657420 0.000001 -0.753524
vn -0.657419 0.000000 -0.753525
vn -0.657419 0.000000 -0.753525
vn -0.657421 0.000000 0.753524
vn -0.657421 0.000000 0.753524
vn -0.657419 -0.000000 -0.753525
vn -0.657419 -0.000000 -0.753525
vn -0.657422 0.000001 0.753523
vn -0.657422 0.000001 0.753523
vn -0.657420 -0.000001 -0.753525
vn -0.657420 -0.000001 -0.753525
s off
g pPlane13
f 5/45/1 7/46/2 3/47/3 4/48/4
f 1/49/5 2/50/6 8/51/7 6/52/8
f 17/10/9 18/8/10 32/36/11 31/20/12
f 18/8/13 17/10/14 20/18/15 19/2/16
f 19/2/17 20/18/18 30/24/19 29/32/20
f 21/12/21 22/6/22 28/33/23 27/16/24
f 22/6/25 21/12/26 24/14/27 23/4/28
f 23/4/29 24/14/30 26/22/31 25/37/32
f 25/37/33 26/22/34 27/16/35 28/33/36
f 29/32/37 30/24/38 31/20/39 32/36/40
s 1
f 9/7/41 10/1/42 18/8/43 19/2/44
s 2
f 12/5/45 11/3/46 22/6/47 23/4/48
f 25/37/49 15/27/50 12/5/45 23/4/48
f 11/3/46 13/29/51 28/33/52 22/6/47
s 1
f 29/32/53 14/26/54 9/7/41 19/2/44
f 10/1/42 16/40/55 32/36/56 18/8/43
s off
f 2/19/57 1/9/58 20/18/59 17/10/60
f 4/15/61 3/11/62 24/14/63 21/12/64
f 3/11/65 7/13/66 26/22/67 24/14/68
f 5/21/69 4/15/70 21/12/71 27/16/72
f 1/9/73 6/17/74 30/24/75 20/18/76
f 8/23/77 2/19/78 17/10/79 31/20/80
f 7/13/81 5/21/82 27/16/83 26/22/84
f 6/17/85 8/23/86 31/20/87 30/24/88
s 2
f 13/29/51 33/25/89 36/30/90 28/33/52
s 1
f 35/31/91 14/26/54 29/32/53 38/35/92
s 2
f 28/33/52 36/30/90 39/34/93 25/37/49
s 1
f 38/35/92 29/32/53 32/36/56 41/39/94
s 2
f 25/37/49 39/34/93 42/38/95 15/27/50
s 1
f 41/39/94 32/36/56 16/40/55 44/28/96
s 3
f 33/25/97 34/41/98 37/55/99 36/30/100
s 4
f 34/56/101 35/31/102 38/35/103 37/42/104
s 3
f 36/30/100 37/55/99 40/53/105 39/34/106
s 4
f 37/42/104 38/35/103 41/39/107 40/43/108
s 3
f 39/34/106 40/53/105 43/54/109 42/38/110
s 4
f 40/43/108 41/39/107 44/28/111 43/44/112
