# This file uses centimeters as units for non-parametric coordinates.

g default
v 13.180241 148.126312 5.579170
v 12.106451 149.384384 5.579170
v 10.498260 149.771027 5.579170
v 8.969947 149.138565 5.579170
v 8.105272 147.728577 5.579170
v 8.234509 146.079605 5.579170
v 9.308299 144.821533 5.579170
v 10.916487 144.434891 5.579170
v 12.444802 145.067368 5.579170
v 13.309476 146.477371 5.579170
v 12.992977 148.048813 0.000000
v 13.180241 148.126312 0.223145
v 12.106451 149.384384 0.223145
v 12.000501 149.211609 0.000000
v 10.498260 149.771027 0.223145
v 10.514094 149.568970 0.000000
v 8.969947 149.138565 0.223145
v 9.101519 148.984406 0.000000
v 8.105272 147.728577 0.223145
v 8.302322 147.681183 0.000000
v 8.234509 146.079605 0.223145
v 8.421768 146.157089 0.000000
v 9.308299 144.821548 0.223145
v 9.414246 144.994293 0.000000
v 10.916487 144.434891 0.223145
v 10.900649 144.636932 0.000000
v 12.444802 145.067368 0.223145
v 12.313228 145.221497 0.000000
v 13.309476 146.477371 0.223145
v 13.112426 146.524734 0.000000
vt 0.382245 0.013839
vt 0.382233 0.111075
vt 0.067375 0.013799
vt 0.382221 0.208312
vt 0.067363 0.111035
vt 0.382209 0.305548
vt 0.067351 0.208272
vt 0.382196 0.402783
vt 0.067338 0.305508
vt 0.382184 0.500020
vt 0.067326 0.402744
vt 0.382172 0.597256
vt 0.067314 0.499981
vt 0.382160 0.694493
vt 0.067302 0.597217
vt 0.382148 0.791729
vt 0.067289 0.694454
vt 0.382136 0.888966
vt 0.067277 0.791690
vt 0.382124 0.986201
vt 0.067253 0.986162
vt 0.067265 0.888927
vt 0.399459 0.982521
vt 0.399579 0.017522
vt 0.399568 0.107395
vt 0.399556 0.204632
vt 0.399544 0.301868
vt 0.399532 0.399105
vt 0.399519 0.496342
vt 0.399506 0.593578
vt 0.399495 0.690813
vt 0.399482 0.788049
vt 0.399470 0.885286
vt 0.399470 0.892649
vt 0.399481 0.795412
vt 0.399494 0.698176
vt 0.399505 0.600940
vt 0.399518 0.503705
vt 0.399531 0.406468
vt 0.399543 0.309232
vt 0.399555 0.211996
vt 0.399568 0.114759
vn 0.575614 0.491299 -0.653677
vn 0.575614 0.491299 -0.653677
vn 0.575614 0.491299 -0.653677
vn 0.575614 0.491299 -0.653677
vn 0.760617 0.649201 0.000000
vn 0.760617 0.649201 0.000000
vn 0.760617 0.649201 0.000000
vn 0.760617 0.649201 0.000000
vn 0.233760 0.972294 0.000000
vn 0.233760 0.972294 0.000000
vn 0.233760 0.972294 0.000000
vn 0.233760 0.972294 0.000000
vn -0.382381 0.924005 0.000000
vn -0.382381 0.924005 0.000000
vn -0.382381 0.924005 0.000000
vn -0.382381 0.924005 0.000000
vn -0.852470 0.522777 0.000000
vn -0.852470 0.522777 0.000000
vn -0.852470 0.522777 0.000000
vn -0.852470 0.522777 0.000000
vn -0.996943 -0.078134 0.000000
vn -0.996943 -0.078134 0.000000
vn -0.996943 -0.078134 0.000000
vn -0.996943 -0.078134 0.000000
vn -0.760615 -0.649204 -0.000002
vn -0.760614 -0.649204 -0.000002
vn -0.760615 -0.649204 -0.000002
vn -0.760615 -0.649204 -0.000002
vn -0.233765 -0.972293 -0.000003
vn -0.233765 -0.972293 -0.000003
vn -0.233765 -0.972293 -0.000003
vn -0.233765 -0.972293 -0.000003
vn 0.382388 -0.924002 0.000000
vn 0.382388 -0.924002 0.000000
vn 0.382388 -0.924002 0.000000
vn 0.382388 -0.924002 0.000000
vn 0.852472 -0.522772 0.000000
vn 0.852472 -0.522772 0.000000
vn 0.852472 -0.522772 0.000000
vn 0.852472 -0.522772 0.000000
vn 0.996943 0.078136 0.000000
vn 0.996943 0.078136 0.000000
vn 0.996943 0.078136 0.000000
vn 0.996943 0.078136 0.000000
vn 0.176903 0.735807 -0.653677
vn 0.176903 0.735807 -0.653677
vn 0.176903 0.735807 -0.653677
vn 0.176903 0.735807 -0.653677
vn -0.289369 0.699247 -0.653697
vn -0.289369 0.699247 -0.653697
vn -0.289369 0.699247 -0.653697
vn -0.289369 0.699247 -0.653697
vn -0.645126 0.395622 -0.653679
vn -0.645126 0.395622 -0.653679
vn -0.645126 0.395622 -0.653678
vn -0.645126 0.395622 -0.653679
vn -0.754464 -0.059129 -0.653672
vn -0.754464 -0.059129 -0.653672
vn -0.754464 -0.059129 -0.653672
vn -0.754464 -0.059129 -0.653672
vn -0.575636 -0.491322 -0.653641
vn -0.575636 -0.491322 -0.653641
vn -0.575636 -0.491322 -0.653641
vn -0.575636 -0.491322 -0.653641
vn -0.176914 -0.735837 -0.653640
vn -0.176914 -0.735837 -0.653640
vn -0.176914 -0.735837 -0.653640
vn -0.176914 -0.735837 -0.653640
vn 0.289384 -0.699277 -0.653658
vn 0.289384 -0.699277 -0.653658
vn 0.289384 -0.699277 -0.653658
vn 0.289384 -0.699277 -0.653658
vn 0.645151 -0.395633 -0.653647
vn 0.645151 -0.395633 -0.653647
vn 0.645151 -0.395633 -0.653647
vn 0.645151 -0.395633 -0.653647
vn 0.754458 0.059131 -0.653680
vn 0.754458 0.059131 -0.653680
vn 0.754458 0.059131 -0.653680
vn 0.754457 0.059131 -0.653680
s off
g polySurface2
f 12/1/1 11/24/2 14/25/3 13/2/4
f 12/1/5 13/2/6 2/5/7 1/3/8
f 13/2/9 15/4/10 3/7/11 2/5/12
f 15/4/13 17/6/14 4/9/15 3/7/16
f 17/6/17 19/8/18 5/11/19 4/9/20
f 19/8/21 21/10/22 6/13/23 5/11/24
f 21/10/25 23/12/26 7/15/27 6/13/28
f 23/12/29 25/14/30 8/17/31 7/15/32
f 25/14/33 27/16/34 9/19/35 8/17/36
f 27/16/37 29/18/38 10/22/39 9/19/40
f 29/18/41 12/20/42 1/21/43 10/22/44
f 13/2/45 14/42/46 16/26/47 15/4/48
f 15/4/49 16/41/50 18/27/51 17/6/52
f 17/6/53 18/40/54 20/28/55 19/8/56
f 19/8/57 20/39/58 22/29/59 21/10/60
f 21/10/61 22/38/62 24/30/63 23/12/64
f 23/12/65 24/37/66 26/31/67 25/14/68
f 25/14/69 26/36/70 28/32/71 27/16/72
f 27/16/73 28/35/74 30/33/75 29/18/76
f 11/23/77 12/20/78 29/18/79 30/34/80
