# This file uses centimeters as units for non-parametric coordinates.

g default
v -50.569416 0.100000 -134.809753
v -41.759804 0.100000 -143.619370
v -32.536289 0.100000 -135.019363
v -41.969418 0.100000 -126.696457
v 130.531998 0.100000 -145.418777
v 139.341599 0.100000 -136.609161
v 130.741608 0.100000 -128.417847
v 121.446823 0.100000 -136.818771
v -57.004955 0.100000 -45.274773
v -48.575443 0.100000 -54.464493
v -39.975445 0.100000 -45.366570
v -48.957596 0.100000 -36.649853
v -143.643341 0.100000 -36.382599
v -135.054535 0.100000 -45.413033
v -126.444962 0.100000 -36.813465
v -135.060669 0.100000 -27.810181
v -139.385696 0.100000 134.595520
v -148.030075 0.100000 125.620667
v -139.411316 0.100000 117.011925
v -130.775879 0.100000 125.995544
v 47.179989 0.100000 123.322517
v 38.146484 0.100000 131.908234
v 29.606823 0.100000 123.308258
v 38.581482 0.100000 114.665489
v 46.340790 0.100000 40.373619
v 37.409142 0.100000 49.061203
v 28.807789 0.100000 40.513115
v 37.687607 0.100000 31.774240
v 141.985641 0.100000 34.971073
v 133.277893 0.100000 43.882545
v 124.223396 0.100000 35.287865
v 133.385651 0.100000 26.770538
v 98.914215 0.100000 12.324354
v 107.618736 0.100000 3.409648
v 116.218735 0.100000 12.409246
v 107.060028 0.100000 20.929838
v 104.974701 0.100000 -105.188026
v 96.165085 0.100000 -113.997643
v 104.279907 0.100000 -122.597641
v 113.574699 0.100000 -114.196716
v 6.024979 0.100000 17.499773
v 14.953386 0.100000 8.808950
v 23.500427 0.100000 17.409590
v 14.623629 0.100000 26.151524
v 6.762325 0.100000 100.346817
v 15.795824 0.100000 91.761086
v 24.397312 0.100000 100.304047
v 15.422647 0.100000 108.946815
v -116.368317 0.100000 93.958908
v -107.824280 0.100000 103.034103
v -114.925201 0.100000 111.634102
v -125.045074 0.100000 104.145706
v -103.477341 0.100000 -13.835816
v -112.173103 0.100000 -4.912345
v -120.707069 0.100000 -14.756557
v -110.828278 0.100000 -22.489704
v -12.970149 0.100000 -22.903053
v -21.415432 0.100000 -13.729104
v -30.570114 0.100000 -22.305176
v -21.570148 0.100000 -31.006063
v -6.154508 0.100000 -112.198235
v -14.964124 0.100000 -103.388618
v -23.564121 0.100000 -112.475311
v -14.130998 0.100000 -120.798233
v -22.704765 2.568748 -127.908813
v -32.766769 2.568748 -119.960045
v 122.158173 2.568748 -121.555847
v 112.484612 2.568748 -129.708221
v -30.772797 2.568748 -37.831390
v -40.275040 2.568748 -29.455162
v -118.006752 2.568748 -29.679779
v -127.868851 2.568748 -21.929710
v -132.245529 2.568748 111.334991
v -122.117241 2.568748 118.814819
v 22.514736 2.568748 116.127533
v 31.489399 2.568748 107.484764
v 21.715710 2.568748 33.332321
v 30.594044 2.568748 24.591942
v 115.305496 2.568748 28.112822
v 124.802208 2.568748 19.823463
vt 0.388555 0.874405
vt 0.855968 0.851015
vt 0.366609 0.643631
vt 0.141796 0.620333
vt 0.105094 0.178694
vt 0.585731 0.155777
vt 0.589139 0.370784
vt 0.837770 0.384682
vt 0.770575 0.490362
vt 0.743031 0.792340
vt 0.530651 0.476871
vt 0.528698 0.261779
vt 0.210731 0.236995
vt 0.201963 0.514458
vt 0.436947 0.536262
vt 0.457010 0.768172
vt 0.833183 0.874268
vt 0.412174 0.851978
vt 0.365412 0.851985
vt 0.388376 0.619704
vt 0.344383 0.620095
vt 0.164257 0.598189
vt 0.119516 0.596931
vt 0.127467 0.200891
vt 0.127447 0.154881
vt 0.563917 0.178245
vt 0.609584 0.177531
vt 0.567465 0.393406
vt 0.612461 0.393132
vt 0.814168 0.406759
vt 0.860351 0.407815
vt 0.833677 0.829867
vt 0.765334 0.769513
vt 0.792585 0.467057
vt 0.748039 0.467624
vt 0.552811 0.454517
vt 0.507403 0.454673
vt 0.550202 0.239177
vt 0.505157 0.240203
vt 0.192133 0.215157
vt 0.189213 0.260552
vt 0.180175 0.539994
vt 0.224402 0.537254
vt 0.413230 0.558607
vt 0.458980 0.559747
vt 0.435345 0.792086
vt 0.479970 0.790456
vt 0.764161 0.814188
vt 0.809375 0.852358
vt 0.437616 0.832385
vt 0.387183 0.830461
vt 0.412604 0.599524
vt 0.141485 0.574566
vt 0.147044 0.215757
vt 0.150114 0.176744
vt 0.545494 0.198000
vt 0.587969 0.200677
vt 0.548431 0.412507
vt 0.590121 0.415292
vt 0.790729 0.426190
vt 0.838289 0.429191
vt 0.810631 0.811899
vt 0.787604 0.792691
vt 0.815423 0.447555
vt 0.769141 0.445601
vt 0.571511 0.434874
vt 0.529303 0.431713
vt 0.569053 0.219999
vt 0.527164 0.217745
vt 0.173082 0.195933
vt 0.166714 0.234427
vt 0.160893 0.558909
vt 0.205379 0.559462
vt 0.387839 0.578191
vt 0.436952 0.581146
vt 0.411308 0.812220
vt 0.459689 0.812830
vt 0.785724 0.833266
vt 0.365180 0.597810
vt 0.186500 0.578883
vn 0.000000 1.000000 0.000000
vn 0.000000 1.000000 0.000000
vn -0.078541 0.996858 -0.010264
vn -0.008608 0.998035 -0.062059
vn -0.100672 0.994918 -0.001808
vn 0.000486 0.984858 -0.173363
vn 0.000000 1.000000 0.000000
vn 0.000000 1.000000 0.000000
vn 0.007116 0.997993 -0.062921
vn 0.075536 0.997111 -0.007996
vn -0.004025 0.984672 -0.174368
vn 0.119990 0.992768 -0.003874
vn 0.000000 1.000000 0.000000
vn 0.000000 1.000000 -0.000000
vn -0.012445 0.977984 -0.208308
vn -0.182578 0.983139 -0.010108
vn -0.003772 0.988822 0.149051
vn 0.100669 0.994920 0.000639
vn 0.000000 1.000000 -0.000000
vn 0.000000 1.000000 -0.000000
vn -0.079629 0.996775 -0.009955
vn -0.013720 0.997266 -0.072609
vn -0.147158 0.989096 -0.005815
vn 0.002080 0.991006 -0.133803
vn 0.000000 1.000000 0.000000
vn 0.000000 1.000000 0.000000
vn -0.006140 0.997877 0.064838
vn -0.075639 0.997120 0.005481
vn 0.003989 0.986500 0.163715
vn -0.157991 0.987437 -0.002668
vn 0.000000 1.000000 -0.000000
vn 0.000000 1.000000 -0.000000
vn 0.074331 0.997198 0.008433
vn 0.008270 0.997259 0.073525
vn 0.175025 0.984301 -0.022739
vn 0.002434 0.988067 0.154006
vn 0.000000 1.000000 0.000000
vn 0.000000 1.000000 0.000000
vn 0.005540 0.975214 0.221195
vn 0.244498 0.969569 -0.012539
vn 0.006165 0.989368 -0.145303
vn -0.174786 0.984338 0.022999
vn 0.000000 1.000000 0.000000
vn 0.000000 1.000000 0.000000
vn 0.072826 0.997329 0.005546
vn 0.011447 0.997519 0.069460
vn 0.126025 0.992027 -0.000466
vn -0.009351 0.987173 0.159381
vn 0.000000 1.000000 -0.000000
vn 0.000000 1.000000 -0.000000
vn -0.003803 0.975266 -0.221002
vn -0.201283 0.979514 -0.006041
vn 0.000000 1.000000 -0.000000
vn 0.000000 1.000000 0.000000
vn -0.198152 0.980073 0.013875
vn -0.005463 0.973731 0.227635
vn 0.000000 1.000000 0.000000
vn 0.000000 1.000000 -0.000000
vn -0.074626 0.997176 -0.008371
vn -0.010653 0.996969 -0.077073
vn 0.000000 1.000000 -0.000000
vn 0.000000 1.000000 0.000000
vn -0.013296 0.974593 -0.223587
vn -0.244448 0.969585 0.012235
vn 0.000000 1.000000 0.000000
vn 0.000000 1.000000 0.000000
vn 0.232237 0.972645 -0.005291
vn 0.002872 0.975005 -0.222166
vn 0.000000 1.000000 0.000000
vn 0.000000 1.000000 0.000000
vn 0.011095 0.978861 0.204224
vn 0.225464 0.974049 0.019878
vn 0.000000 1.000000 0.000000
vn 0.000000 1.000000 0.000000
vn 0.079061 0.996819 0.010092
vn 0.014316 0.997684 0.066500
vn 0.000000 1.000000 0.000000
vn 0.000000 1.000000 -0.000000
vn 0.011193 0.974317 0.224904
vn 0.182333 0.983171 0.011343
s 1
g pPlane2
f 2/1/1 1/19/2 4/51/3 3/18/4
f 3/18/4 4/51/3 66/76/5 65/50/6
f 6/2/7 5/17/8 8/49/9 7/32/10
f 7/32/10 8/49/9 68/78/11 67/62/12
f 10/3/13 9/21/14 12/79/15 11/20/16
f 11/20/16 12/79/15 70/74/17 69/52/18
f 14/4/19 13/23/20 16/53/21 15/22/22
f 15/22/22 16/53/21 72/72/23 71/80/24
f 18/5/25 17/25/26 20/55/27 19/24/28
f 19/24/28 20/55/27 74/70/29 73/54/30
f 22/6/31 21/27/32 24/57/33 23/26/34
f 23/26/34 24/57/33 76/68/35 75/56/36
f 26/7/37 25/29/38 28/59/39 27/28/40
f 27/28/40 28/59/39 78/66/41 77/58/42
f 30/8/43 29/31/44 32/61/45 31/30/46
f 31/30/46 32/61/45 80/64/47 79/60/48
f 34/9/49 33/35/50 36/65/51 35/34/52
f 35/34/52 36/65/51 79/60/48 80/64/47
f 38/10/53 37/33/54 40/63/55 39/48/56
f 39/48/56 40/63/55 67/62/12 68/78/11
f 42/11/57 41/37/58 44/67/59 43/36/60
f 43/36/60 44/67/59 77/58/42 78/66/41
f 46/12/61 45/39/62 48/69/63 47/38/64
f 47/38/64 48/69/63 75/56/36 76/68/35
f 50/13/65 49/41/66 52/71/67 51/40/68
f 51/40/68 52/71/67 73/54/30 74/70/29
f 54/14/69 53/43/70 56/73/71 55/42/72
f 55/42/72 56/73/71 71/80/24 72/72/23
f 58/15/73 57/45/74 60/75/75 59/44/76
f 59/44/76 60/75/75 69/52/18 70/74/17
f 62/16/77 61/47/78 64/77/79 63/46/80
f 63/46/80 64/77/79 65/50/6 66/76/5
f 8/49/9 5/17/8 2/1/1 3/18/4
f 4/51/3 1/19/2 10/3/13 11/20/16
f 12/79/15 9/21/14 14/4/19 15/22/22
f 16/53/21 13/23/20 18/5/25 19/24/28
f 20/55/27 17/25/26 22/6/31 23/26/34
f 24/57/33 21/27/32 26/7/37 27/28/40
f 28/59/39 25/29/38 30/8/43 31/30/46
f 32/61/45 29/31/44 6/2/7 7/32/10
f 40/63/55 37/33/54 34/9/49 35/34/52
f 36/65/51 33/35/50 42/11/57 43/36/60
f 44/67/59 41/37/58 46/12/61 47/38/64
f 48/69/63 45/39/62 50/13/65 51/40/68
f 52/71/67 49/41/66 54/14/69 55/42/72
f 56/73/71 53/43/70 58/15/73 59/44/76
f 60/75/75 57/45/74 62/16/77 63/46/80
f 64/77/79 61/47/78 38/10/53 39/48/56
f 8/49/9 3/18/4 65/50/6 68/78/11
f 4/51/3 11/20/16 69/52/18 66/76/5
f 16/53/21 19/24/28 73/54/30 72/72/23
f 20/55/27 23/26/34 75/56/36 74/70/29
f 24/57/33 27/28/40 77/58/42 76/68/35
f 28/59/39 31/30/46 79/60/48 78/66/41
f 32/61/45 7/32/10 67/62/12 80/64/47
f 40/63/55 35/34/52 80/64/47 67/62/12
f 36/65/51 43/36/60 78/66/41 79/60/48
f 44/67/59 47/38/64 76/68/35 77/58/42
f 48/69/63 51/40/68 74/70/29 75/56/36
f 52/71/67 55/42/72 72/72/23 73/54/30
f 56/73/71 59/44/76 70/74/17 71/80/24
f 60/75/75 63/46/80 66/76/5 69/52/18
f 64/77/79 39/48/56 68/78/11 65/50/6
f 70/74/17 12/79/15 15/22/22 71/80/24
