# This file uses centimeters as units for non-parametric coordinates.

g default
v 0.136408 32.615959 -2.530716
v 0.204041 32.615959 -2.367439
v 0.136408 32.615959 -2.204155
v -0.026874 32.615959 -2.136520
v -0.190155 32.615959 -2.530716
v -0.257789 32.615959 -2.367439
v -0.190155 32.615959 -2.204155
v -0.026874 32.615959 -2.598351
v 0.185192 34.333755 -2.701195
v -0.026874 34.278168 -2.769218
v -0.026874 34.467941 -2.536980
v -0.238940 34.333763 -2.701187
v -0.326781 34.467941 -2.536964
v -0.238939 34.602119 -2.372765
v -0.026874 34.657707 -2.304726
v 0.185192 34.602135 -2.372742
v 0.273033 34.467941 -2.536964
v 0.163206 33.553993 -2.406242
v -0.026874 33.521156 -2.477798
v -0.216953 33.553993 -2.406235
v -0.295687 33.633278 -2.233475
v -0.216953 33.712555 -2.060722
v -0.026874 33.745392 -1.989159
v 0.163206 33.712555 -2.060707
v 0.241940 33.633278 -2.233475
v 2.020771 32.615959 0.646965
v 2.193132 32.615959 0.686035
v 2.287386 32.615959 0.835533
v 2.248320 32.615959 1.007896
v 1.832200 32.615959 0.913582
v 1.926452 32.615959 1.063087
v 2.098816 32.615959 1.102158
v 1.871267 32.615959 0.741219
v 1.909755 34.333755 0.508698
v 1.731763 34.278168 0.642555
v 1.921374 34.467941 0.776657
v 1.664852 34.333763 0.854973
v 1.748203 34.467941 1.021523
v 1.932989 34.602119 1.044624
v 2.110989 34.657707 0.910774
v 2.177918 34.602135 0.698364
v 2.094560 34.467941 0.531807
v 2.137872 33.553993 0.696968
v 1.969689 33.521156 0.810829
v 1.918357 33.553993 1.007347
v 2.013938 33.633278 1.171387
v 2.200441 33.712555 1.206856
v 2.368629 33.745392 1.092995
v 2.419973 33.712555 0.896492
v 2.324385 33.633278 0.732445
v -2.095736 32.615959 1.288101
v -2.268122 32.615959 1.249153
v -2.362479 32.615959 1.099716
v -2.323530 32.615959 0.927322
v -1.907346 32.615959 1.021355
v -2.001699 32.615959 0.871918
v -2.174090 32.615959 0.832970
v -1.946295 32.615959 1.193748
v -1.984626 34.333755 1.426300
v -1.806724 34.278168 1.292320
v -1.996426 34.467941 1.158340
v -1.739958 34.333763 1.079849
v -1.823422 34.467941 0.913368
v -2.008224 34.602119 0.890388
v -2.186132 34.657707 1.024361
v -2.252918 34.602135 1.236816
v -2.169446 34.467941 1.403313
v -2.212870 33.553993 1.238182
v -2.044765 33.521156 1.124199
v -1.993566 33.553993 0.927658
v -2.089259 33.633278 0.763687
v -2.275787 33.712555 0.728340
v -2.443897 33.745392 0.842316
v -2.495107 33.712555 1.038857
v -2.399408 33.633278 1.202827
v 3.363855 33.665527 -3.324928
v 0.000000 34.494583 -4.718277
v -3.363855 34.494583 -3.324928
v -4.757210 33.665527 0.038895
v -3.363855 34.494583 3.402794
v 0.000000 34.494583 4.796104
v 3.363856 34.494583 3.402794
v 4.757211 34.211327 0.038895
v 0.000000 0.000000 0.038887
v 3.744679 0.489218 -3.705742
v 3.370249 0.000000 -3.331322
v 0.000000 0.489218 -5.256836
v 0.000000 0.000000 -4.727325
v -3.744679 0.489218 -3.705742
v -3.370249 0.000000 -3.331322
v -5.295776 0.489218 0.038887
v -4.766252 0.000000 0.038887
v -3.744679 0.489218 3.783623
v -3.370249 0.000000 3.409187
v 0.000000 0.489218 5.334663
v 0.000000 0.000000 4.805191
v 3.744680 0.489218 3.783623
v 3.370249 0.000000 3.409187
v 5.295777 0.489218 0.038887
v 4.766252 0.000000 0.038887
v 0.000000 30.359385 -5.256836
v 3.744679 30.359365 -3.705742
v 5.295777 30.359385 0.038887
v 3.744680 30.359385 3.783623
v 0.000000 30.359385 5.334663
v -3.744679 30.359385 3.783623
v -5.295776 30.359385 0.038887
v -3.744679 30.359385 -3.705742
v 0.000000 32.343697 -5.906273
v 4.203899 32.343681 -4.164978
v 0.000000 34.206718 -5.906273
v 4.203899 33.377663 -4.164978
v 5.945211 32.343697 0.038887
v 5.945211 33.923462 0.038887
v 4.203899 32.343697 4.242805
v 4.203899 34.206718 4.242805
v -0.000000 32.343697 5.984093
v -0.000000 34.206718 5.984093
v -4.203896 32.343697 4.242798
v -4.203896 34.206718 4.242798
v -5.945212 32.343697 0.038887
v -5.945212 33.377663 0.038887
v -4.203901 32.343697 -4.164978
v -4.203901 34.206718 -4.164978
v 0.000000 13.471217 -4.659065
v 0.000000 21.826796 -4.659065
v -3.321985 21.826796 -3.283051
v -3.321985 13.471217 -3.283051
v -4.697995 21.826796 0.038895
v -4.697995 13.471217 0.038895
v -3.321985 21.826796 3.360909
v -3.321985 13.471217 3.360909
v 0.000000 21.826796 4.736885
v 0.000000 13.471217 4.736885
v 3.321985 21.826796 3.360909
v 3.321985 13.471217 3.360909
v 4.697996 21.826796 0.038895
v 4.697996 13.471217 0.038895
v 3.321985 21.826792 -3.283051
v 3.321985 13.471212 -3.283051
v 3.230535 33.415993 -3.191620
v 0.000000 33.415993 -4.529732
v -3.230535 33.415993 -3.191620
v -4.568667 33.415993 0.038895
v -3.230535 33.415993 3.269463
v 0.000000 33.415993 4.607567
v 3.230536 33.415993 3.269463
v 4.568668 33.415993 0.038895
v 1.921381 32.708565 -1.882454
v 0.000000 32.708565 -2.678314
v 0.000000 32.708557 0.038887
v -1.921381 32.708565 -1.882454
v -2.717237 32.708565 0.038902
v -1.921377 32.708565 1.960297
v 0.000000 32.708565 2.756134
v 1.921377 32.708565 1.960297
v 2.717238 32.708565 0.038902
vt 0.921908 0.055295
vt 0.927369 0.054135
vt 0.884172 0.057088
vt 0.889316 0.052008
vt 0.894185 0.055081
vt 0.899352 0.057837
vt 0.905048 0.059250
vt 0.910911 0.059002
vt 0.916524 0.057334
vt 0.921027 0.034435
vt 0.889637 0.030215
vt 0.894341 0.031748
vt 0.898533 0.034013
vt 0.902712 0.036049
vt 0.907276 0.037141
vt 0.911966 0.036981
vt 0.916467 0.035819
vt 0.923083 0.011310
vt 0.927363 0.011449
vt 0.896940 0.008677
vt 0.901147 0.009611
vt 0.905470 0.010420
vt 0.909914 0.010961
vt 0.914376 0.011318
vt 0.918774 0.011386
vt 0.838903 0.017049
vt 0.833443 0.018215
vt 0.876637 0.015212
vt 0.871499 0.020298
vt 0.866626 0.017231
vt 0.861456 0.014481
vt 0.855758 0.013075
vt 0.849896 0.013329
vt 0.844284 0.015004
vt 0.839808 0.037907
vt 0.871203 0.042091
vt 0.866497 0.040564
vt 0.862303 0.038304
vt 0.858121 0.036273
vt 0.853556 0.035186
vt 0.848866 0.035351
vt 0.844366 0.036518
vt 0.837779 0.061035
vt 0.833498 0.060901
vt 0.863925 0.063638
vt 0.859717 0.062709
vt 0.855393 0.061904
vt 0.850948 0.061369
vt 0.846486 0.061017
vt 0.842088 0.060954
vt 0.974240 0.013276
vt 0.972540 0.007958
vt 0.979799 0.050644
vt 0.974230 0.046033
vt 0.976801 0.040882
vt 0.979025 0.035465
vt 0.979862 0.029656
vt 0.979029 0.023848
vt 0.976808 0.018429
vt 0.953573 0.016239
vt 0.952515 0.047894
vt 0.953569 0.043061
vt 0.955403 0.038663
vt 0.957011 0.034301
vt 0.957641 0.029651
vt 0.957013 0.025000
vt 0.955407 0.020638
vt 0.930359 0.016507
vt 0.930069 0.012234
vt 0.930354 0.042783
vt 0.930862 0.038503
vt 0.931235 0.034121
vt 0.931329 0.029645
vt 0.931237 0.025170
vt 0.930866 0.020787
vt 0.846100 0.323010
vt 0.812408 0.285681
vt 0.872001 0.262493
vt 0.813553 0.235791
vt 0.848677 0.200517
vt 0.898396 0.203304
vt 0.931996 0.239114
vt 0.931221 0.288040
vt 0.896191 0.323022
vt 0.288634 0.034182
vt 0.960825 0.532404
vt 0.960834 0.444578
vt 0.379130 0.034731
vt 0.197646 0.032513
vt 0.898718 0.594500
vt 0.898738 0.382470
vt 0.469485 0.034473
vt 0.810913 0.382461
vt 0.560150 0.033130
vt 0.748803 0.444557
vt 0.652090 0.029125
vt 0.748795 0.532383
vt 0.012154 0.016247
vt 0.810891 0.594492
vt 0.105672 0.028348
vt 0.854815 0.488480
vt 0.291897 0.801015
vt 0.384690 0.796435
vt 0.385729 0.840394
vt 0.292673 0.826288
vt 0.198761 0.801074
vt 0.200546 0.838275
vt 0.102619 0.805939
vt 0.109057 0.849551
vt 0.769456 0.820233
vt 0.758681 0.868830
vt 0.666916 0.805467
vt 0.661800 0.848477
vt 0.570688 0.802187
vt 0.568883 0.827262
vt 0.477737 0.796374
vt 0.475926 0.840663
vt 0.291097 0.750736
vt 0.384708 0.747780
vt 0.743964 0.310472
vt 0.823383 0.375764
vt 0.196864 0.752272
vt 0.924938 0.384273
vt 0.100250 0.757452
vt 1.000000 0.314245
vt 0.767360 0.763245
vt 0.999981 0.211624
vt 0.669794 0.756283
vt 0.930216 0.137769
vt 0.573668 0.752269
vt 0.827989 0.146724
vt 0.479168 0.747858
vt 0.745188 0.208980
vt 0.380694 0.345986
vt 0.383128 0.545421
vt 0.290596 0.546577
vt 0.289006 0.346353
vt 0.472386 0.345130
vt 0.476045 0.544940
vt 0.563662 0.343514
vt 0.568547 0.545231
vt 0.653898 0.340805
vt 0.659697 0.545227
vt 0.741529 0.337440
vt 0.019498 0.552142
vt 0.107035 0.346003
vt 0.107734 0.550268
vt 0.197652 0.346327
vt 0.198547 0.548109
vt 0.768365 0.302137
vt 0.826601 0.368377
vt 0.770419 0.218313
vt 0.830908 0.154272
vt 0.918524 0.160741
vt 0.975822 0.221714
vt 0.975085 0.305253
vt 0.915967 0.366113
vt 0.108279 0.011909
vt 0.198508 0.015949
vt 0.738596 0.000188
vt 0.649443 0.012877
vt 0.559181 0.016624
vt 0.469108 0.017914
vt 0.379071 0.018158
vt 0.288894 0.017605
vt 0.203854 0.864950
vt 0.293201 0.855290
vt 0.114579 0.874841
vt 0.027636 0.894920
vt 0.655204 0.874175
vt 0.566250 0.856317
vt 0.475136 0.865745
vt 0.384780 0.866983
vt 0.017799 0.345796
vt 0.748762 0.543906
vt 0.002890 0.765781
vt 0.000000 0.820851
vt 0.008398 0.869200
vt 0.739909 0.893285
vt 0.021019 0.000003
vt 0.747586 0.016039
vt 0.952521 0.011406
vt 0.972553 0.051348
vt 0.980495 0.057861
vt 0.975180 0.056244
vt 0.985397 0.055251
vt 0.987017 0.049943
vt 0.984411 0.045045
vt 0.979110 0.043426
vt 0.930062 0.047056
vt 0.834894 0.038477
vt 0.876621 0.022492
vt 0.883888 0.015233
vt 0.881753 0.020363
vt 0.881776 0.010098
vt 0.876653 0.007960
vt 0.871522 0.010069
vt 0.869387 0.015184
vt 0.868148 0.064351
vt 0.925942 0.033871
vt 0.884196 0.049808
vt 0.876921 0.057059
vt 0.879062 0.051932
vt 0.879027 0.062197
vt 0.884147 0.064340
vt 0.889281 0.062237
vt 0.891422 0.057125
vt 0.892717 0.007959
vn 0.000012 0.774364 -0.632740
vn 0.000002 0.774351 -0.632756
vn 0.000002 0.774366 -0.632738
vn -0.000009 0.774363 -0.632742
vn -0.000032 0.774363 -0.632742
vn -0.000008 0.774369 -0.632735
vn 0.000007 0.774387 -0.632712
vn 0.000015 0.774368 -0.632735
vn 0.000032 0.774362 -0.632742
vn 0.733795 -0.098917 -0.672131
vn -0.000017 -0.104864 -0.994487
vn -0.000024 -0.361520 -0.932364
vn 0.744428 -0.254440 -0.617323
vn -0.733795 -0.098915 -0.672131
vn -0.744427 -0.254440 -0.617324
vn -0.995183 -0.041792 0.088676
vn -0.994112 0.005213 0.108235
vn -0.656176 0.061796 0.752073
vn -0.643565 0.239270 0.727031
vn -0.000036 0.113090 0.993585
vn -0.000046 0.324571 0.945861
vn 0.656174 0.061789 0.752076
vn 0.643555 0.239267 0.727040
vn 0.995184 -0.041792 0.088673
vn 0.994112 0.005210 0.108230
vn 0.665900 0.080227 -0.741715
vn -0.000010 0.126359 -0.991985
vn -0.665899 0.080231 -0.741716
vn -0.999495 -0.030473 -0.009035
vn -0.676423 -0.112329 0.727897
vn -0.000021 -0.134008 0.990980
vn 0.676424 -0.112334 0.727895
vn 0.999495 -0.030476 -0.009035
vn -0.516592 0.774359 -0.365379
vn -0.516600 0.774351 -0.365382
vn -0.516585 0.774369 -0.365366
vn -0.516589 0.774363 -0.365373
vn -0.516599 0.774370 -0.365344
vn -0.516593 0.774374 -0.365345
vn -0.516568 0.774380 -0.365368
vn -0.516567 0.774380 -0.365368
vn -0.516573 0.774375 -0.365370
vn -0.125024 -0.098918 -0.987210
vn -0.811940 -0.104863 -0.574246
vn -0.761226 -0.361521 -0.538366
vn -0.074149 -0.254445 -0.964241
vn -0.972474 -0.098915 0.210976
vn -0.933868 -0.254440 0.251296
vn -0.502266 -0.041793 0.863703
vn -0.485680 0.005212 0.874121
vn 0.235120 0.061795 0.970000
vn 0.221952 0.239268 0.945245
vn 0.811175 0.113087 0.573765
vn 0.772204 0.324568 0.546220
vn 0.992921 0.061791 -0.101443
vn 0.965195 0.239265 -0.105598
vn 0.647054 -0.041792 -0.761298
vn 0.662406 0.005209 -0.749127
vn -0.221033 0.080228 -0.971961
vn -0.809894 0.126360 -0.572805
vn -0.990078 0.080230 0.115362
vn -0.584529 -0.030474 0.810800
vn 0.203697 -0.112329 0.972569
vn 0.809060 -0.134007 0.572245
vn 0.984872 -0.112332 -0.131939
vn 0.569772 -0.030474 -0.821238
vn 0.516837 0.774363 0.365023
vn 0.516847 0.774355 0.365025
vn 0.516835 0.774367 0.365015
vn 0.516842 0.774365 0.365011
vn 0.516846 0.774368 0.364999
vn 0.516837 0.774365 0.365018
vn 0.516823 0.774372 0.365024
vn 0.516826 0.774376 0.365010
vn 0.516825 0.774375 0.365013
vn 0.125699 -0.098921 0.987124
vn 0.812331 -0.104865 0.573691
vn 0.761590 -0.361524 0.537848
vn 0.074800 -0.254449 0.964189
vn 0.972329 -0.098914 -0.211640
vn 0.933694 -0.254440 -0.251942
vn 0.501671 -0.041791 -0.864049
vn 0.485078 0.005212 -0.874455
vn -0.235768 0.061796 -0.969843
vn -0.222589 0.239265 -0.945096
vn -0.811566 0.113089 -0.573212
vn -0.772577 0.324568 -0.545694
vn -0.992851 0.061790 0.102119
vn -0.965123 0.239265 0.106252
vn -0.646531 -0.041794 0.761742
vn -0.661890 0.005203 0.749583
vn 0.221702 0.080229 0.971808
vn 0.810281 0.126361 0.572256
vn 0.989999 0.080231 -0.116041
vn 0.583969 -0.030470 -0.811204
vn -0.204345 -0.112324 -0.972433
vn -0.809448 -0.134005 -0.571696
vn -0.984783 -0.112332 0.132609
vn -0.569204 -0.030473 0.821631
vn -0.194841 0.961288 0.194842
vn 0.000000 0.961287 0.275548
vn -0.000000 1.000000 -0.000000
vn 0.194841 0.961288 0.194842
vn 0.275547 0.961288 -0.000000
vn 0.194841 0.961288 -0.194840
vn -0.000000 0.961288 -0.275546
vn -0.194841 0.961288 -0.194841
vn -0.275547 0.961288 -0.000001
vn 0.707056 0.011680 -0.707062
vn 0.171008 -0.970315 -0.171011
vn 0.000000 -0.970315 -0.241846
vn 0.000000 0.011680 -0.999932
vn 0.999932 0.011680 -0.000000
vn 0.241843 -0.970316 -0.000000
vn -0.171009 -0.970315 -0.171011
vn -0.707056 0.011680 -0.707062
vn -0.241843 -0.970315 -0.000000
vn -0.999932 0.011680 -0.000000
vn -0.171010 -0.970315 0.171008
vn -0.707058 0.011681 0.707059
vn -0.000000 -0.970315 0.241843
vn 0.000000 0.011681 0.999932
vn 0.171010 -0.970315 0.171008
vn 0.707058 0.011681 0.707059
vn 0.000000 -1.000000 0.000000
vn 0.689043 -0.179390 -0.702167
vn -0.024975 -0.165046 -0.985970
vn -0.020495 0.429264 -0.902946
vn 0.638226 0.409865 -0.651673
vn 0.984748 -0.172028 0.026032
vn 0.899862 0.435596 0.022482
vn 0.692296 -0.158863 0.703910
vn 0.646501 0.386672 0.657663
vn -0.000001 -0.155813 0.987787
vn -0.000001 0.365996 0.930617
vn -0.679527 -0.165041 0.714846
vn -0.623989 0.429260 0.652974
vn -0.984475 -0.175528 0.000000
vn -0.922020 0.387143 0.000000
vn -0.679522 -0.165046 -0.714850
vn -0.623984 0.429265 -0.652975
vn 0.701442 -0.126296 -0.701448
vn -0.000001 -0.126296 -0.991993
vn 0.136492 0.961919 0.236815
vn 0.023594 0.998734 0.044432
vn 0.991993 -0.126295 0.000001
vn -0.157675 0.977701 -0.138707
vn 0.701444 -0.126295 0.701446
vn -0.168832 0.956801 -0.236702
vn -0.000000 -0.126293 0.991993
vn -0.000000 0.948999 -0.315279
vn -0.701444 -0.126294 0.701446
vn 0.070939 0.961919 -0.263968
vn -0.991993 -0.126295 -0.000000
vn 0.042209 0.999109 -0.000000
vn -0.701442 -0.126296 -0.701448
vn 0.070938 0.961919 0.263968
vn -0.000000 0.028795 -0.999585
vn -0.000000 -0.036746 -0.999325
vn 0.706626 -0.036746 -0.706632
vn 0.706810 0.028796 -0.706817
vn -0.706811 0.028796 -0.706817
vn -0.706626 -0.036746 -0.706632
vn -0.999585 0.028796 0.000000
vn -0.999325 -0.036746 0.000000
vn -0.706813 0.028796 0.706814
vn -0.706629 -0.036747 0.706629
vn -0.000000 0.028796 0.999585
vn 0.000000 -0.036747 0.999325
vn 0.706813 0.028796 0.706814
vn 0.706629 -0.036747 0.706629
vn 0.999585 0.028796 0.000000
vn 0.999325 -0.036746 0.000000
vn 0.053434 0.698020 0.714082
vn -0.435164 0.770318 0.466093
vn 0.467146 0.698019 0.542718
vn 0.663727 0.747975 0.000000
vn 0.467147 0.698022 -0.542714
vn -0.000000 0.644934 -0.764239
vn -0.517123 0.662734 -0.541635
vn -0.673500 0.736981 -0.057073
s 1
g BougieBigTall3
f 9/203/1 10/201/2 11/3/3
f 10/201/2 12/4/4 11/3/3
f 12/4/4 13/207/5 11/3/3
f 13/207/5 14/206/6 11/3/3
f 14/206/6 15/205/7 11/3/3
f 15/205/7 16/204/8 11/3/3
f 16/204/8 17/202/9 11/3/3
f 17/202/9 9/203/1 11/3/3
s 2
f 18/10/10 19/200/11 10/2/12 9/1/13
f 19/11/11 20/12/14 12/4/15 10/201/12
f 20/12/14 21/13/16 13/5/17 12/4/15
f 21/13/16 22/14/18 14/6/19 13/5/17
f 22/14/18 23/15/20 15/7/21 14/6/19
f 23/15/20 24/16/22 16/8/23 15/7/21
f 24/16/22 25/17/24 17/9/25 16/8/23
f 25/17/24 18/10/10 9/1/13 17/9/25
f 1/18/26 8/19/27 19/200/11 18/10/10
f 8/208/27 5/20/28 20/12/14 19/11/11
f 5/20/28 6/21/29 21/13/16 20/12/14
f 6/21/29 7/22/30 22/14/18 21/13/16
f 7/22/30 4/23/31 23/15/20 22/14/18
f 4/23/31 3/24/32 24/16/22 23/15/20
f 3/24/32 2/25/33 25/17/24 24/16/22
f 2/25/33 1/18/26 18/10/10 25/17/24
s 3
f 34/194/34 35/192/35 36/28/36
f 35/192/35 37/29/37 36/28/36
f 37/29/37 38/198/38 36/28/36
f 38/198/38 39/197/39 36/28/36
f 39/197/39 40/196/40 36/28/36
f 40/196/40 41/195/41 36/28/36
f 41/195/41 42/193/42 36/28/36
f 42/193/42 34/194/34 36/28/36
s 4
f 43/35/43 44/191/44 35/27/45 34/26/46
f 44/36/44 45/37/47 37/29/48 35/192/45
f 45/37/47 46/38/49 38/30/50 37/29/48
f 46/38/49 47/39/51 39/31/52 38/30/50
f 47/39/51 48/40/53 40/32/54 39/31/52
f 48/40/53 49/41/55 41/33/56 40/32/54
f 49/41/55 50/42/57 42/34/58 41/33/56
f 50/42/57 43/35/43 34/26/46 42/34/58
f 26/43/59 33/44/60 44/191/44 43/35/43
f 33/199/60 30/45/61 45/37/47 44/36/44
f 30/45/61 31/46/62 46/38/49 45/37/47
f 31/46/62 32/47/63 47/39/51 46/38/49
f 32/47/63 29/48/64 48/40/53 47/39/51
f 29/48/64 28/49/65 49/41/55 48/40/53
f 28/49/65 27/50/66 50/42/57 49/41/55
f 27/50/66 26/43/59 43/35/43 50/42/57
s 5
f 59/185/67 60/183/68 61/53/69
f 60/183/68 62/54/70 61/53/69
f 62/54/70 63/189/71 61/53/69
f 63/189/71 64/188/72 61/53/69
f 64/188/72 65/187/73 61/53/69
f 65/187/73 66/186/74 61/53/69
f 66/186/74 67/184/75 61/53/69
f 67/184/75 59/185/67 61/53/69
s 6
f 68/60/76 69/182/77 60/52/78 59/51/79
f 69/61/77 70/62/80 62/54/81 60/183/78
f 70/62/80 71/63/82 63/55/83 62/54/81
f 71/63/82 72/64/84 64/56/85 63/55/83
f 72/64/84 73/65/86 65/57/87 64/56/85
f 73/65/86 74/66/88 66/58/89 65/57/87
f 74/66/88 75/67/90 67/59/91 66/58/89
f 75/67/90 68/60/76 59/51/79 67/59/91
f 51/68/92 58/69/93 69/182/77 68/60/76
f 58/190/93 55/70/94 70/62/80 69/61/77
f 55/70/94 56/71/95 71/63/82 70/62/80
f 56/71/95 57/72/96 72/64/84 71/63/82
f 57/72/96 54/73/97 73/65/86 72/64/84
f 54/73/97 53/74/98 74/66/88 73/65/86
f 53/74/98 52/75/99 75/67/90 74/66/88
f 52/75/99 51/68/92 68/60/76 75/67/90
s 7
f 149/76/100 150/77/101 151/78/102
f 150/77/101 152/79/103 151/78/102
f 152/79/103 153/80/104 151/78/102
f 153/80/104 154/81/105 151/78/102
f 154/81/105 155/82/106 151/78/102
f 155/82/106 156/83/107 151/78/102
f 156/83/107 157/84/108 151/78/102
f 157/84/108 149/76/100 151/78/102
f 85/85/109 86/165/110 88/164/111 87/88/112
f 86/165/110 85/85/109 99/89/113 100/159/114
f 87/88/112 88/164/111 90/163/115 89/92/116
f 89/92/116 90/163/115 92/162/117 91/94/118
f 91/94/118 92/162/117 94/161/119 93/96/120
f 93/96/120 94/161/119 96/160/121 95/181/122
f 95/98/122 96/180/121 98/158/123 97/100/124
f 97/100/124 98/158/123 100/159/114 99/89/113
f 88/87/111 86/86/110 84/101/125
f 90/91/115 88/87/111 84/101/125
f 92/93/117 90/91/115 84/101/125
f 94/95/119 92/93/117 84/101/125
f 96/97/121 94/95/119 84/101/125
f 98/99/123 96/97/121 84/101/125
f 100/90/114 98/99/123 84/101/125
f 86/86/110 100/90/114 84/101/125
f 110/102/126 109/103/127 111/104/128 112/105/129
f 113/106/130 110/102/126 112/105/129 114/107/131
f 115/108/132 113/106/130 114/107/131 116/109/133
f 117/177/134 115/108/132 116/109/133 118/178/135
f 119/112/136 117/110/134 118/111/135 120/113/137
f 121/114/138 119/112/136 120/113/137 122/115/139
f 123/116/140 121/114/138 122/115/139 124/117/141
f 109/103/127 123/116/140 124/117/141 111/104/128
f 102/118/142 101/119/143 109/103/127 110/102/126
f 77/173/144 76/167/145 112/105/129 111/104/128
f 103/122/146 102/118/142 110/102/126 113/106/130
f 76/167/145 83/166/147 114/107/131 112/105/129
f 104/124/148 103/122/146 113/106/130 115/108/132
f 83/166/147 82/168/149 116/109/133 114/107/131
f 105/176/150 104/124/148 115/108/132 117/177/134
f 82/168/149 81/169/151 118/178/135 116/109/133
f 106/128/152 105/126/150 117/110/134 119/112/136
f 81/179/151 80/170/153 120/113/137 118/111/135
f 107/130/154 106/128/152 119/112/136 121/114/138
f 80/170/153 79/171/155 122/115/139 120/113/137
f 108/132/156 107/130/154 121/114/138 123/116/140
f 79/171/155 78/172/157 124/117/141 122/115/139
f 101/119/143 108/132/156 123/116/140 109/103/127
f 78/172/157 77/173/144 111/104/128 124/117/141
f 125/134/158 126/135/159 139/136/160 140/137/161
f 126/135/159 125/134/158 128/138/162 127/139/163
f 127/139/163 128/138/162 130/140/164 129/141/165
f 129/141/165 130/140/164 132/142/166 131/143/167
f 131/143/167 132/142/166 134/144/168 133/175/169
f 133/145/169 134/174/168 136/146/170 135/147/171
f 135/147/171 136/146/170 138/148/172 137/149/173
f 137/149/173 138/148/172 140/137/161 139/136/160
f 139/136/160 126/135/159 101/119/143 102/118/142
f 126/135/159 127/139/163 108/132/156 101/119/143
f 127/139/163 129/141/165 107/130/154 108/132/156
f 129/141/165 131/143/167 106/128/152 107/130/154
f 131/143/167 133/175/169 105/126/150 106/128/152
f 133/145/169 135/147/171 104/124/148 105/176/150
f 135/147/171 137/149/173 103/122/146 104/124/148
f 137/149/173 139/136/160 102/118/142 103/122/146
f 87/88/112 89/92/116 128/138/162 125/134/158
f 89/92/116 91/94/118 130/140/164 128/138/162
f 91/94/118 93/96/120 132/142/166 130/140/164
f 93/96/120 95/181/122 134/144/168 132/142/166
f 95/98/122 97/100/124 136/146/170 134/174/168
f 97/100/124 99/89/113 138/148/172 136/146/170
f 99/89/113 85/85/109 140/137/161 138/148/172
f 85/85/109 87/88/112 125/134/158 140/137/161
f 76/121/145 77/120/144 142/150/174 141/151/175
f 77/120/144 78/133/157 143/152/176 142/150/174
f 78/133/157 79/131/155 144/153/177 143/152/176
f 79/131/155 80/129/153 145/154/178 144/153/177
f 80/129/153 81/127/151 146/155/179 145/154/178
f 81/127/151 82/125/149 147/156/180 146/155/179
f 82/125/149 83/123/147 148/157/181 147/156/180
f 83/123/147 76/121/145 141/151/175 148/157/181
f 141/151/175 142/150/174 150/77/101 149/76/100
f 142/150/174 143/152/176 152/79/103 150/77/101
f 143/152/176 144/153/177 153/80/104 152/79/103
f 144/153/177 145/154/178 154/81/105 153/80/104
f 145/154/178 146/155/179 155/82/106 154/81/105
f 146/155/179 147/156/180 156/83/107 155/82/106
f 147/156/180 148/157/181 157/84/108 156/83/107
f 148/157/181 141/151/175 149/76/100 157/84/108
