# This file uses centimeters as units for non-parametric coordinates.

g default
v 0.000000 0.000000 -0.038916
v 0.940834 15.781395 -0.979753
v 0.000000 15.781395 -1.369455
v -0.940834 15.781395 -0.979753
v -1.330541 15.781395 -0.038916
v -0.940834 15.781395 0.901917
v 0.000000 15.781395 1.291620
v 0.940834 15.781395 0.901918
v 1.330541 15.781395 -0.038916
v 1.133346 12.910353 -1.172268
v 0.000000 12.910353 -1.641708
v -1.133346 12.910353 -1.172268
v -1.602794 12.910353 -0.038916
v -1.133346 12.910353 1.094431
v 0.000000 12.910353 1.563877
v 1.133346 12.910353 1.094431
v 1.602794 12.910353 -0.038916
v 1.362852 15.177818 -1.401768
v -0.000000 15.177818 -1.966278
v 0.000000 15.789484 -1.729216
v 1.195221 15.789484 -1.234140
v -1.362853 15.177818 -1.401770
v -1.195221 15.789484 -1.234140
v -1.927365 15.177818 -0.038916
v -1.690298 15.789484 -0.038916
v -1.362853 15.177818 1.323931
v -1.195221 15.789484 1.156303
v -0.000000 15.177818 1.888445
v -0.000000 15.789482 1.651382
v 1.362854 15.177818 1.323933
v 1.195221 15.789482 1.156305
v 1.927366 15.177818 -0.038916
v 1.690299 15.789484 -0.038916
v 0.558249 15.417933 -0.597164
v 0.789483 15.417933 -0.038916
v 0.558249 15.417933 0.519333
v 0.000001 15.417933 0.750565
v -0.558249 15.417933 -0.597164
v -0.789483 15.417933 -0.038916
v -0.558249 15.417933 0.519331
v 0.000000 15.417933 -0.828400
v 0.163282 15.415612 -0.211390
v 0.230915 15.415612 -0.048111
v 0.163281 15.415612 0.115171
v 0.000000 15.415612 0.182806
v -0.163282 15.415612 -0.211390
v -0.230915 15.415612 -0.048111
v -0.163281 15.415612 0.115171
v 0.000000 15.415612 -0.279024
v 0.212066 17.133404 -0.381870
v 0.000000 17.077820 -0.449894
v 0.000000 17.267591 -0.217651
v -0.212066 17.133410 -0.381861
v -0.299907 17.267593 -0.217642
v -0.212066 17.401766 -0.053436
v 0.000000 17.457355 0.014597
v 0.212066 17.401785 -0.053413
v 0.299907 17.267593 -0.217642
v 0.190080 16.353645 -0.086914
v 0.000000 16.320807 -0.158472
v -0.190080 16.353647 -0.086908
v -0.268813 16.432928 0.085850
v -0.190079 16.512203 0.258600
v 0.000000 16.545044 0.330166
v 0.190079 16.512209 0.258615
v 0.268813 16.432928 0.085850
v 1.423780 0.186480 -1.462694
v 1.285247 0.000000 -1.324162
v 0.000000 0.186480 -2.052444
v 0.000000 0.000000 -1.856529
v -1.423780 0.186480 -1.462694
v -1.285247 0.000000 -1.324162
v -2.013529 0.186480 -0.038916
v -1.817614 0.000000 -0.038916
v -1.423780 0.186480 1.384859
v -1.285247 0.000000 1.246326
v 0.000000 0.186480 1.974613
v 0.000000 0.000000 1.778698
v 1.423780 0.186480 1.384859
v 1.285247 0.000000 1.246326
v 2.013529 0.186480 -0.038916
v 1.817614 0.000000 -0.038916
vt 0.324856 0.118530
vt 0.371304 0.072045
vt 0.436992 0.072017
vt 0.483439 0.118438
vt 0.483427 0.184074
vt 0.436957 0.230409
vt 0.371386 0.230860
vt 0.324876 0.184281
vt 0.194261 0.521299
vt 0.054857 0.521562
vt 0.055608 0.600524
vt 0.015954 0.600505
vt 0.304533 0.110098
vt 0.055712 0.679427
vt 0.016080 0.679070
vt 0.055053 0.758950
vt 0.015560 0.758036
vt 0.053068 0.840260
vt 0.014075 0.837638
vt 0.047766 0.273006
vt 0.006900 0.282178
vt 0.051750 0.360033
vt 0.012142 0.362385
vt 0.053563 0.441825
vt 0.013991 0.442624
vt 0.360772 0.168801
vt 0.361162 0.132992
vt 0.421540 0.194655
vt 0.385801 0.194395
vt 0.422522 0.108326
vt 0.447533 0.133887
vt 0.447124 0.169639
vt 0.386743 0.107951
vt 0.850481 0.027845
vt 0.849521 0.019731
vt 0.851358 0.044637
vt 0.851185 0.036153
vt 0.849508 0.069542
vt 0.850472 0.061430
vt 0.851180 0.053122
vt 0.848953 0.077642
vt 0.932709 0.013612
vt 0.929487 0.003531
vt 0.943241 0.084452
vt 0.932684 0.075711
vt 0.937559 0.065945
vt 0.941777 0.055676
vt 0.943363 0.044665
vt 0.941786 0.033654
vt 0.937575 0.023381
vt 0.893530 0.019227
vt 0.891518 0.079235
vt 0.893517 0.070073
vt 0.896996 0.061736
vt 0.900043 0.053468
vt 0.901239 0.044652
vt 0.900048 0.035836
vt 0.897005 0.027565
vt 0.972230 0.597307
vt 0.971861 0.505945
vt 0.971703 0.688662
vt 0.970619 0.780183
vt 0.970606 0.872258
vt 0.977226 0.229866
vt 0.970883 0.322532
vt 0.970913 0.414435
vt 0.304495 0.182545
vt 0.304491 0.097678
vt 0.244479 0.037671
vt 0.159612 0.037674
vt 0.099605 0.097686
vt 0.099608 0.182553
vt 0.159621 0.242560
vt 0.202050 0.140116
vt 0.244488 0.242557
vt 0.195273 0.599915
vt 0.195513 0.678553
vt 0.195041 0.756964
vt 0.193959 0.834702
vt 0.192458 0.910660
vt 0.190055 0.365177
vt 0.192470 0.442937
vt 0.986563 0.324229
vt 0.986633 0.414551
vt 0.993062 0.957857
vt 0.986085 0.870333
vt 0.986287 0.779715
vt 0.987407 0.688485
vt 0.987942 0.597103
vt 0.987577 0.505726
vt 0.304543 0.192692
vt 0.015229 0.521868
vt 0.363012 0.251338
vt 0.445529 0.251234
vt 0.503746 0.192502
vt 0.503772 0.110031
vt 0.445424 0.051693
vt 0.362896 0.051712
vt 0.977519 0.965690
vt 0.187925 0.288804
vt 0.993100 0.237577
vt 0.047973 0.926037
vt 0.008232 0.916285
vt 0.445664 0.251235
vt 0.416634 0.145717
vt 0.416516 0.156179
vt 0.391372 0.145464
vt 0.398854 0.138136
vt 0.409318 0.138243
vt 0.398574 0.163410
vt 0.391257 0.155933
vt 0.409034 0.163504
vt 0.944561 0.098133
vt 0.934484 0.095067
vt 0.953853 0.093187
vt 0.956925 0.083124
vt 0.951985 0.073839
vt 0.941937 0.070769
vt 0.891534 0.010063
vt 0.929505 0.085785
vt 0.848972 0.011631
vn 0.706716 -0.033262 -0.706716
vn 0.000000 -0.033262 -0.999447
vn 0.000000 0.590465 -0.807063
vn 0.570679 0.590466 -0.570680
vn -0.706716 -0.033263 -0.706716
vn -0.570679 0.590467 -0.570679
vn -0.999447 -0.033262 0.000000
vn -0.807061 0.590467 -0.000000
vn -0.706715 -0.033262 0.706716
vn -0.570678 0.590466 0.570681
vn -0.000000 -0.033262 0.999447
vn -0.000001 0.590465 0.807063
vn 0.706715 -0.033263 0.706716
vn 0.570678 0.590467 0.570680
vn 0.999447 -0.033263 -0.000000
vn 0.807061 0.590468 -0.000001
vn 0.707095 0.005702 -0.707096
vn 0.000000 0.005702 -0.999984
vn -0.000000 0.962180 0.272416
vn -0.192626 0.962180 0.192627
vn -0.707095 0.005702 -0.707096
vn 0.192626 0.962180 0.192626
vn -0.999984 0.005702 0.000000
vn 0.272415 0.962180 -0.000000
vn -0.707095 0.005702 0.707096
vn 0.192626 0.962180 -0.192627
vn -0.000000 0.005702 0.999984
vn 0.000001 0.962180 -0.272414
vn 0.707095 0.005702 0.707096
vn -0.192625 0.962181 -0.192624
vn 0.999984 0.005702 -0.000000
vn -0.272415 0.962180 0.000001
vn -0.394300 0.830093 0.394300
vn -0.557625 0.830093 0.000000
vn -0.394300 0.830093 -0.394300
vn 0.000001 0.830093 -0.557626
vn 0.557625 0.830093 -0.000000
vn 0.394301 0.830093 0.394300
vn 0.394300 0.830093 -0.394302
vn -0.000000 0.830093 0.557625
vn -0.004155 0.999991 -0.000025
vn -0.002985 0.999991 0.002959
vn -0.002965 0.999991 0.002979
vn -0.004156 0.999991 0.000013
vn 0.000000 0.999992 -0.004087
vn -0.002892 0.999992 -0.002914
vn -0.002911 0.999992 -0.002896
vn 0.000000 0.999992 -0.004087
vn 0.002985 0.999991 0.002960
vn 0.004155 0.999991 -0.000024
vn 0.004156 0.999991 0.000014
vn 0.002965 0.999991 0.002980
vn 0.002892 0.999992 -0.002917
vn 0.002911 0.999992 -0.002898
vn 0.000000 0.999991 0.004223
vn -0.000000 0.999991 0.004223
vn 0.000008 0.774365 -0.632739
vn -0.000004 0.774357 -0.632749
vn -0.000001 0.774368 -0.632735
vn -0.000011 0.774357 -0.632749
vn -0.000015 0.774370 -0.632733
vn -0.000010 0.774376 -0.632726
vn -0.000001 0.774376 -0.632726
vn 0.000010 0.774376 -0.632726
vn 0.000015 0.774370 -0.632733
vn 0.733795 -0.098919 -0.672131
vn -0.000015 -0.104863 -0.994487
vn -0.000022 -0.361523 -0.932363
vn 0.744425 -0.254444 -0.617324
vn -0.733795 -0.098917 -0.672131
vn -0.744424 -0.254442 -0.617327
vn -0.995183 -0.041792 0.088676
vn -0.994112 0.005213 0.108236
vn -0.656176 0.061795 0.752074
vn -0.643566 0.239269 0.727031
vn -0.000037 0.113091 0.993585
vn -0.000049 0.324570 0.945862
vn 0.656174 0.061791 0.752076
vn 0.643556 0.239267 0.727040
vn 0.995184 -0.041793 0.088674
vn 0.994112 0.005209 0.108231
vn 0.665898 0.080228 -0.741716
vn -0.000008 0.126359 -0.991985
vn -0.665899 0.080230 -0.741716
vn -0.999495 -0.030473 -0.009035
vn -0.676421 -0.112327 0.727899
vn -0.000020 -0.134006 0.990981
vn 0.676422 -0.112332 0.727898
vn 0.999495 -0.030475 -0.009034
vn 0.706985 0.018538 -0.706985
vn 0.171793 -0.970038 -0.171793
vn -0.000000 -0.970038 -0.242952
vn -0.000000 0.018537 -0.999828
vn 0.999828 0.018538 -0.000000
vn 0.242952 -0.970038 0.000000
vn -0.171793 -0.970038 -0.171793
vn -0.706985 0.018538 -0.706985
vn -0.242952 -0.970038 0.000000
vn -0.999828 0.018538 0.000000
vn -0.171793 -0.970038 0.171793
vn -0.706985 0.018538 0.706985
vn 0.000000 -0.970038 0.242952
vn 0.000000 0.018538 0.999828
vn 0.171793 -0.970038 0.171793
vn 0.706985 0.018538 0.706985
vn 0.000000 -1.000000 0.000000
s 1
g BougieFineshort1
f 18/10/1 19/11/2 20/12/3 21/92/4
f 19/11/2 22/14/5 23/15/6 20/12/3
f 22/14/5 24/16/7 25/17/8 23/15/6
f 24/16/7 26/18/9 27/19/10 25/17/8
f 26/18/9 28/102/11 29/103/12 27/19/10
f 28/20/11 30/22/13 31/23/14 29/21/12
f 30/22/13 32/24/15 33/25/16 31/23/14
f 32/24/15 18/10/1 21/92/4 33/25/16
f 10/9/17 11/76/18 19/11/2 18/10/1
f 3/2/19 2/1/20 21/13/4 20/98/3
f 11/76/18 12/77/21 22/14/5 19/11/2
f 4/3/22 3/2/19 20/98/3 23/97/6
f 12/77/21 13/78/23 24/16/7 22/14/5
f 5/4/24 4/3/22 23/97/6 25/96/8
f 13/78/23 14/79/25 26/18/9 24/16/7
f 6/5/26 5/4/24 25/96/8 27/95/10
f 14/79/25 15/80/27 28/102/11 26/18/9
f 7/6/28 6/5/26 27/95/10 29/94/12
f 15/100/27 16/81/29 30/22/13 28/20/11
f 8/7/30 7/6/28 29/104/12 31/93/14
f 16/81/29 17/82/31 32/24/15 30/22/13
f 9/8/32 8/7/30 31/93/14 33/91/16
f 17/82/31 10/9/17 18/10/1 32/24/15
f 2/1/20 9/8/32 33/91/16 21/13/4
f 9/8/32 2/1/20 34/27/33 35/26/34
f 7/6/28 8/7/30 36/29/35 37/28/36
f 4/3/22 5/4/24 39/31/37 38/30/38
f 6/5/26 7/6/28 37/28/36 40/32/39
f 8/7/30 9/8/32 35/26/34 36/29/35
f 3/2/19 4/3/22 38/30/38 41/33/40
f 2/1/20 3/2/19 41/33/40 34/27/33
f 5/4/24 6/5/26 40/32/39 39/31/37
s 2
f 35/26/41 34/27/42 42/107/43 43/111/44
f 37/28/45 36/29/46 44/110/47 45/112/48
f 38/30/49 39/31/50 47/105/51 46/109/52
f 40/32/53 37/28/45 45/112/48 48/106/54
f 36/29/46 35/26/41 43/111/44 44/110/47
f 41/33/55 38/30/49 46/109/52 49/108/56
f 34/27/42 41/33/55 49/108/56 42/107/43
f 39/31/50 40/32/53 48/106/54 47/105/51
s 4
f 50/114/57 51/120/58 52/44/59
f 51/120/58 53/45/60 52/44/59
f 53/45/60 54/118/61 52/44/59
f 54/118/61 55/117/62 52/44/59
f 55/117/62 56/116/63 52/44/59
f 56/116/63 57/115/64 52/44/59
f 57/115/64 58/113/65 52/44/59
f 58/113/65 50/114/57 52/44/59
s 5
f 59/51/66 60/119/67 51/43/68 50/42/69
f 60/52/67 61/53/70 53/45/71 51/120/68
f 61/53/70 62/54/72 54/46/73 53/45/71
f 62/54/72 63/55/74 55/47/75 54/46/73
f 63/55/74 64/56/76 56/48/77 55/47/75
f 64/56/76 65/57/78 57/49/79 56/48/77
f 65/57/78 66/58/80 58/50/81 57/49/79
f 66/58/80 59/51/66 50/42/69 58/50/81
f 42/35/82 49/121/83 60/119/67 59/51/66
f 49/41/83 46/38/84 61/53/70 60/52/67
f 46/38/84 47/39/85 62/54/72 61/53/70
f 47/39/85 48/40/86 63/55/74 62/54/72
f 48/40/86 45/36/87 64/56/76 63/55/74
f 45/36/87 44/37/88 65/57/78 64/56/76
f 44/37/88 43/34/89 66/58/80 65/57/78
f 43/34/89 42/35/82 59/51/66 66/58/80
s 1
f 67/60/90 68/90/91 70/89/92 69/59/93
f 68/90/91 67/60/90 81/66/94 82/84/95
f 69/59/93 70/89/92 72/88/96 71/61/97
f 71/61/97 72/88/96 74/87/98 73/62/99
f 73/62/99 74/87/98 76/86/100 75/63/101
f 75/63/101 76/86/100 78/85/102 77/99/103
f 77/64/103 78/101/102 80/83/104 79/65/105
f 79/65/105 80/83/104 82/84/95 81/66/94
f 70/68/92 68/67/91 1/74/106
f 72/69/96 70/68/92 1/74/106
f 74/70/98 72/69/96 1/74/106
f 76/71/100 74/70/98 1/74/106
f 78/72/102 76/71/100 1/74/106
f 80/73/104 78/72/102 1/74/106
f 82/75/95 80/73/104 1/74/106
f 68/67/91 82/75/95 1/74/106
f 67/60/90 69/59/93 11/76/18 10/9/17
f 69/59/93 71/61/97 12/77/21 11/76/18
f 71/61/97 73/62/99 13/78/23 12/77/21
f 73/62/99 75/63/101 14/79/25 13/78/23
f 75/63/101 77/99/103 15/80/27 14/79/25
f 77/64/103 79/65/105 16/81/29 15/100/27
f 79/65/105 81/66/94 17/82/31 16/81/29
f 81/66/94 67/60/90 10/9/17 17/82/31
