# This file uses centimeters as units for non-parametric coordinates.

g default
v 1.388779 14.439143 -1.369531
v 1.456412 14.439143 -1.206253
v 1.388779 14.439143 -1.042970
v 1.225497 14.439143 -0.975336
v 1.062215 14.439143 -1.369531
v 0.994582 14.439143 -1.206253
v 1.062216 14.439143 -1.042970
v 1.225497 14.439143 -1.437166
v 1.437563 16.156937 -1.540012
v 1.225497 16.101353 -1.608036
v 1.225497 16.291122 -1.375793
v 1.013431 16.156940 -1.540002
v 0.925590 16.291126 -1.375783
v 1.013431 16.425297 -1.211578
v 1.225497 16.480888 -1.143545
v 1.437563 16.425316 -1.211555
v 1.525404 16.291126 -1.375783
v 1.415577 15.377176 -1.245056
v 1.225497 15.344337 -1.316614
v 1.035417 15.377178 -1.245050
v 0.956684 15.456459 -1.072292
v 1.035418 15.535734 -0.899541
v 1.225497 15.568575 -0.827976
v 1.415576 15.535740 -0.899526
v 1.494310 15.456459 -1.072292
v -1.198175 14.439143 1.450966
v -1.370562 14.439143 1.412018
v -1.464919 14.439143 1.262579
v -1.425970 14.439143 1.090189
v -1.009786 14.439143 1.184222
v -1.104139 14.439143 1.034785
v -1.276530 14.439143 0.995833
v -1.048735 14.439143 1.356612
v -1.087065 16.156937 1.589163
v -0.909164 16.101353 1.455184
v -1.098866 16.291122 1.321207
v -0.842398 16.156940 1.242715
v -0.925862 16.291126 1.076230
v -1.110663 16.425297 1.053252
v -1.288572 16.480888 1.187226
v -1.355357 16.425316 1.399681
v -1.271885 16.291126 1.566173
v -1.315310 15.377176 1.401048
v -1.147205 15.344337 1.287067
v -1.096006 15.377178 1.090521
v -1.191699 15.456459 0.926548
v -1.378227 15.535734 0.891203
v -1.546337 15.568575 1.005179
v -1.597547 15.535740 1.201718
v -1.501848 15.456459 1.365695
v 0.000000 0.000000 -0.038523
v 3.038599 7.847549 -3.077123
v 0.000000 7.847549 -4.335751
v -3.038599 7.847549 -3.077123
v -4.297227 7.847549 -0.038523
v -3.038599 7.847549 3.000076
v 0.000000 7.847549 4.258705
v 3.038599 7.847549 3.000076
v 4.297228 7.847549 -0.038523
v 3.606842 12.413577 -3.645366
v 5.100845 12.413577 -0.038523
v 3.606842 12.413577 3.568319
v 0.000000 12.413577 5.062321
v -3.606842 12.413577 3.568319
v -5.100845 12.413577 -0.038523
v -3.606842 12.413577 -3.645366
v 0.000000 12.413577 -5.139367
v 3.919475 13.555488 -3.958392
v 5.542975 13.555488 -0.038916
v 3.919476 13.555488 3.880559
v 0.000000 13.555488 5.504057
v -3.919476 13.555488 3.880559
v -5.542975 13.555488 -0.038916
v -3.919475 13.555488 -3.958392
v 0.000000 13.555488 -5.581890
v 2.842971 15.013234 -2.881888
v 0.000000 15.013234 -4.059485
v -2.842971 15.013234 -2.881888
v -4.020568 15.013234 -0.038916
v -2.842971 15.013234 2.804056
v 0.000000 15.013234 3.981651
v 2.842971 15.013234 2.804056
v 4.020568 15.013234 -0.038916
v 1.544202 14.465928 -1.583118
v 0.000000 14.465928 -2.222748
v 0.000000 14.465928 -0.038916
v -1.544201 14.465928 -1.583118
v -2.183830 14.465928 -0.038916
v -1.544201 14.465928 1.505286
v 0.000000 14.465928 2.144914
v 1.544202 14.465928 1.505286
v 2.183831 14.465928 -0.038916
v 3.728850 0.638834 -3.767375
v 3.557464 0.000000 -3.595989
v 0.000000 0.638834 -5.311913
v 0.000000 0.000000 -5.069538
v -3.728850 0.638834 -3.767375
v -3.557464 0.000000 -3.595989
v -5.273390 0.638834 -0.038523
v -5.031014 0.000000 -0.038523
v -3.728850 0.638834 3.690324
v -3.557464 0.000000 3.518939
v 0.000000 0.638834 5.234865
v 0.000000 0.000000 4.992490
v 3.728850 0.638834 3.690324
v 3.557465 0.000000 3.518939
v 5.273390 0.638834 -0.038523
v 5.031014 0.000000 -0.038523
v 3.170228 16.969158 -3.148235
v 0.000000 17.120705 -4.453083
v -3.162357 16.053783 -3.210232
v -4.484111 16.289886 0.000814
v -3.171907 15.625421 3.151525
v 0.000000 14.878572 4.355176
v 3.162124 15.324084 3.072010
v 4.486686 16.289753 0.000798
v 3.893524 16.398216 -3.872917
v 5.516503 15.634992 -0.005459
v 3.910320 14.525886 3.802320
v 0.000000 14.042146 5.404317
v -3.905219 14.885663 3.873638
v -5.518305 15.634896 -0.005470
v -3.891865 15.428863 -3.947437
v 0.000000 16.584522 -5.478398
vt 0.962187 0.075251
vt 0.969402 0.073719
vt 0.912335 0.077619
vt 0.919131 0.070908
vt 0.925563 0.074968
vt 0.932389 0.078608
vt 0.939913 0.080475
vt 0.947659 0.080148
vt 0.955074 0.077944
vt 0.961024 0.047694
vt 0.919555 0.042118
vt 0.925769 0.044143
vt 0.931307 0.047136
vt 0.936827 0.049825
vt 0.942857 0.051268
vt 0.949053 0.051057
vt 0.954999 0.049522
vt 0.963739 0.017144
vt 0.969394 0.017327
vt 0.929202 0.013665
vt 0.934760 0.014899
vt 0.940471 0.015968
vt 0.946342 0.016682
vt 0.952237 0.017153
vt 0.958047 0.017244
vt 0.848555 0.024743
vt 0.841343 0.026285
vt 0.898405 0.022304
vt 0.891618 0.029025
vt 0.885180 0.024974
vt 0.878349 0.021343
vt 0.870822 0.019487
vt 0.863077 0.019825
vt 0.855665 0.022039
vt 0.849758 0.052298
vt 0.891235 0.057815
vt 0.885018 0.055799
vt 0.879476 0.052814
vt 0.873951 0.050133
vt 0.867920 0.048699
vt 0.861724 0.048919
vt 0.855780 0.050461
vt 0.847086 0.082852
vt 0.841431 0.082677
vt 0.881628 0.086282
vt 0.876068 0.085056
vt 0.870355 0.083995
vt 0.864484 0.083289
vt 0.858588 0.082826
vt 0.852778 0.082744
vt 0.308379 0.384784
vt 0.311833 0.503940
vt 0.166277 0.505819
vt 0.162812 0.388309
vt 0.311152 0.622959
vt 0.163958 0.622746
vt 0.307686 0.740930
vt 0.160205 0.740075
vt 0.302049 0.856703
vt 0.150959 0.859052
vt 0.295992 0.966334
vt 0.127588 0.032316
vt 0.289754 0.151762
vt 0.141814 0.153393
vt 0.300755 0.266837
vt 0.154323 0.271154
vt 0.752537 0.384889
vt 0.715759 0.350696
vt 0.778262 0.322026
vt 0.712538 0.300464
vt 0.746844 0.261471
vt 0.800139 0.257245
vt 0.841141 0.293825
vt 0.842308 0.348788
vt 0.803675 0.385487
vt 0.124754 0.389470
vt 0.116056 0.273197
vt 0.103632 0.156232
vt 0.086124 0.030360
vt 0.112546 0.856896
vt 0.122204 0.738579
vt 0.125236 0.622219
vt 0.128372 0.506199
vt 0.729469 0.438686
vt 0.662659 0.376585
vt 0.654227 0.283675
vt 0.716644 0.209599
vt 0.816337 0.197907
vt 0.897032 0.266987
vt 0.899138 0.375215
vt 0.822451 0.442644
vt 0.540863 0.375643
vt 0.885204 0.852371
vt 0.971800 0.765768
vt 0.544190 0.500616
vt 0.533851 0.250905
vt 0.762734 0.852376
vt 0.971795 0.643298
vt 0.543671 0.625289
vt 0.885192 0.556702
vt 0.539673 0.749268
vt 0.762722 0.556707
vt 0.532936 0.873051
vt 0.676126 0.643310
vt 0.512877 0.000009
vt 0.676131 0.765780
vt 0.523769 0.126350
vt 0.823963 0.704539
vt 0.833507 0.486464
vt 0.700728 0.495072
vt 0.606208 0.406890
vt 0.617108 0.273720
vt 0.695770 0.172465
vt 0.821840 0.172462
vt 0.908908 0.261237
vt 0.914021 0.384658
vt 0.032658 0.507318
vt 0.034906 0.392889
vt 0.050062 0.277308
vt 0.073144 0.160996
vt 0.069497 0.033722
vt 0.070918 0.852772
vt 0.056300 0.736268
vt 0.064951 0.621297
vt 0.545354 0.125217
vt 0.555432 0.249639
vt 0.548962 0.997043
vt 0.554433 0.873488
vt 0.561256 0.749931
vt 0.565285 0.625535
vt 0.565803 0.500322
vt 0.562464 0.374810
vt 0.032734 0.163996
vt 0.013405 0.278051
vt 0.028033 0.052607
vt 0.032327 0.849855
vt 0.021428 0.734738
vt 0.026731 0.621537
vt 0.000000 0.507274
vt 0.000037 0.393308
vt 0.037265 0.962982
vt 0.080048 0.980127
vt 0.096886 0.983113
vt 0.526956 1.000000
vt 0.277725 0.042524
vt 0.535210 0.002073
vt 0.139542 0.980962
vt 0.843267 0.053053
vt 0.898386 0.031921
vt 0.907983 0.022329
vt 0.905165 0.029106
vt 0.905191 0.015545
vt 0.898424 0.012723
vt 0.891645 0.015512
vt 0.888826 0.022269
vt 0.887207 0.087223
vt 0.967516 0.046948
vt 0.912367 0.068002
vt 0.902756 0.077581
vt 0.905585 0.070808
vt 0.905538 0.084368
vt 0.912302 0.087200
vt 0.919084 0.084421
vt 0.921913 0.077668
vt 0.923624 0.012716
vn 0.000004 0.774363 -0.632742
vn -0.000007 0.774360 -0.632746
vn -0.000002 0.774368 -0.632736
vn -0.000011 0.774358 -0.632748
vn -0.000010 0.774366 -0.632738
vn -0.000010 0.774376 -0.632726
vn -0.000001 0.774374 -0.632728
vn 0.000010 0.774375 -0.632727
vn 0.000010 0.774371 -0.632731
vn 0.733795 -0.098919 -0.672131
vn -0.000015 -0.104863 -0.994487
vn -0.000020 -0.361522 -0.932363
vn 0.744425 -0.254443 -0.617325
vn -0.733795 -0.098917 -0.672131
vn -0.744424 -0.254442 -0.617327
vn -0.995184 -0.041792 0.088676
vn -0.994111 0.005213 0.108237
vn -0.656176 0.061795 0.752074
vn -0.643566 0.239269 0.727030
vn -0.000037 0.113091 0.993585
vn -0.000049 0.324570 0.945862
vn 0.656173 0.061791 0.752076
vn 0.643556 0.239266 0.727041
vn 0.995184 -0.041793 0.088673
vn 0.994112 0.005208 0.108230
vn 0.665900 0.080228 -0.741715
vn -0.000008 0.126360 -0.991985
vn -0.665899 0.080230 -0.741715
vn -0.999495 -0.030473 -0.009035
vn -0.676421 -0.112327 0.727899
vn -0.000020 -0.134006 0.990981
vn 0.676422 -0.112332 0.727898
vn 0.999495 -0.030475 -0.009034
vn 0.516835 0.774364 0.365022
vn 0.516846 0.774360 0.365016
vn 0.516835 0.774368 0.365014
vn 0.516849 0.774359 0.365014
vn 0.516840 0.774366 0.365011
vn 0.516834 0.774375 0.365001
vn 0.516829 0.774375 0.365007
vn 0.516823 0.774375 0.365018
vn 0.516825 0.774371 0.365022
vn 0.125698 -0.098919 0.987125
vn 0.812330 -0.104863 0.573692
vn 0.761590 -0.361522 0.537850
vn 0.074799 -0.254443 0.964191
vn 0.972329 -0.098917 -0.211640
vn 0.933695 -0.254442 -0.251938
vn 0.501674 -0.041792 -0.864047
vn 0.485077 0.005212 -0.874456
vn -0.235774 0.061794 -0.969841
vn -0.222592 0.239267 -0.945095
vn -0.811564 0.113090 -0.573214
vn -0.772576 0.324570 -0.545693
vn -0.992851 0.061791 0.102118
vn -0.965123 0.239266 0.106254
vn -0.646535 -0.041793 0.761738
vn -0.661893 0.005208 0.749581
vn 0.221703 0.080227 0.971808
vn 0.810283 0.126359 0.572255
vn 0.989999 0.080230 -0.116039
vn 0.583974 -0.030472 -0.811200
vn -0.204348 -0.112327 -0.972432
vn -0.809448 -0.134006 -0.571696
vn -0.984783 -0.112332 0.132606
vn -0.569212 -0.030475 0.821626
vn 0.707024 0.015316 -0.707024
vn 0.000000 0.015316 -0.999883
vn 0.000000 -0.221835 -0.975084
vn 0.689501 -0.221812 -0.689484
vn -0.707024 0.015316 -0.707024
vn -0.689501 -0.221812 -0.689484
vn -0.999883 0.015316 0.000000
vn -0.975102 -0.221755 0.000017
vn -0.707024 0.015315 0.707024
vn -0.689502 -0.221699 0.689519
vn 0.000000 0.015315 0.999883
vn -0.000000 -0.221675 0.975121
vn 0.707024 0.015316 0.707024
vn 0.689502 -0.221699 0.689519
vn 0.999883 0.015316 -0.000000
vn 0.975102 -0.221755 0.000017
vn -0.163557 0.972882 0.163556
vn 0.000000 0.972882 0.231304
vn 0.000000 1.000000 0.000000
vn 0.163557 0.972882 0.163556
vn 0.231304 0.972882 0.000000
vn 0.163557 0.972882 -0.163556
vn 0.000000 0.972882 -0.231304
vn -0.163557 0.972882 -0.163557
vn -0.231304 0.972882 -0.000000
vn 0.683502 -0.084747 -0.725012
vn 0.990994 -0.116093 -0.066738
vn 0.743176 -0.155027 0.650889
vn -0.017251 -0.175490 0.984330
vn -0.745272 -0.151260 0.649377
vn -0.991680 -0.126750 -0.022494
vn -0.681564 -0.105272 -0.724147
vn 0.029247 -0.083535 -0.996076
vn -0.556631 0.547131 0.625148
vn -0.051612 0.548815 0.834349
vn 0.502267 0.643635 0.577462
vn 0.692171 0.720939 0.033841
vn 0.463667 0.835816 -0.293981
vn 0.030732 0.952138 -0.304121
vn -0.414352 0.877730 -0.240630
vn -0.726831 0.677419 0.113227
vn 0.704077 0.092470 -0.704077
vn 0.221405 -0.949716 -0.221405
vn 0.000000 -0.949716 -0.313114
vn 0.000000 0.092470 -0.995715
vn 0.995715 0.092470 -0.000000
vn 0.313114 -0.949716 0.000000
vn -0.221405 -0.949716 -0.221405
vn -0.704077 0.092470 -0.704077
vn -0.313114 -0.949716 0.000000
vn -0.995715 0.092470 0.000000
vn -0.221405 -0.949716 0.221405
vn -0.704077 0.092470 0.704077
vn 0.000000 -0.949715 0.313114
vn -0.000000 0.092470 0.995716
vn 0.221405 -0.949716 0.221405
vn 0.704077 0.092470 0.704077
vn 0.000000 -1.000000 0.000000
vn -0.111356 0.948265 0.297311
vn -0.203479 0.887621 0.413190
vn -0.154818 0.882419 0.444261
vn 0.005561 0.971341 0.237624
vn 0.025577 0.996377 0.081107
vn -0.015543 0.936757 0.349635
vn 0.050140 0.840533 0.539435
vn 0.095132 0.901260 0.422705
vn 0.025145 0.286493 -0.957752
vn 0.667014 0.262523 -0.697262
vn 0.952430 0.302390 -0.037910
vn 0.672295 0.397578 0.624461
vn -0.003777 0.456673 0.889627
vn -0.668616 0.383794 0.636910
vn -0.938837 0.344290 -0.006977
vn -0.662104 0.246354 -0.707763
s 1
g BougieBigShort2
f 9/160/1 10/158/2 11/3/3
f 10/158/2 12/4/4 11/3/3
f 12/4/4 13/164/5 11/3/3
f 13/164/5 14/163/6 11/3/3
f 14/163/6 15/162/7 11/3/3
f 15/162/7 16/161/8 11/3/3
f 16/161/8 17/159/9 11/3/3
f 17/159/9 9/160/1 11/3/3
s 2
f 18/10/10 19/157/11 10/2/12 9/1/13
f 19/11/11 20/12/14 12/4/15 10/158/12
f 20/12/14 21/13/16 13/5/17 12/4/15
f 21/13/16 22/14/18 14/6/19 13/5/17
f 22/14/18 23/15/20 15/7/21 14/6/19
f 23/15/20 24/16/22 16/8/23 15/7/21
f 24/16/22 25/17/24 17/9/25 16/8/23
f 25/17/24 18/10/10 9/1/13 17/9/25
f 1/18/26 8/19/27 19/157/11 18/10/10
f 8/165/27 5/20/28 20/12/14 19/11/11
f 5/20/28 6/21/29 21/13/16 20/12/14
f 6/21/29 7/22/30 22/14/18 21/13/16
f 7/22/30 4/23/31 23/15/20 22/14/18
f 4/23/31 3/24/32 24/16/22 23/15/20
f 3/24/32 2/25/33 25/17/24 24/16/22
f 2/25/33 1/18/26 18/10/10 25/17/24
s 3
f 34/151/34 35/149/35 36/28/36
f 35/149/35 37/29/37 36/28/36
f 37/29/37 38/155/38 36/28/36
f 38/155/38 39/154/39 36/28/36
f 39/154/39 40/153/40 36/28/36
f 40/153/40 41/152/41 36/28/36
f 41/152/41 42/150/42 36/28/36
f 42/150/42 34/151/34 36/28/36
s 4
f 43/35/43 44/148/44 35/27/45 34/26/46
f 44/36/44 45/37/47 37/29/48 35/149/45
f 45/37/47 46/38/49 38/30/50 37/29/48
f 46/38/49 47/39/51 39/31/52 38/30/50
f 47/39/51 48/40/53 40/32/54 39/31/52
f 48/40/53 49/41/55 41/33/56 40/32/54
f 49/41/55 50/42/57 42/34/58 41/33/56
f 50/42/57 43/35/43 34/26/46 42/34/58
f 26/43/59 33/44/60 44/148/44 43/35/43
f 33/156/60 30/45/61 45/37/47 44/36/44
f 30/45/61 31/46/62 46/38/49 45/37/47
f 31/46/62 32/47/63 47/39/51 46/38/49
f 32/47/63 29/48/64 48/40/53 47/39/51
f 29/48/64 28/49/65 49/41/55 48/40/53
f 28/49/65 27/50/66 50/42/57 49/41/55
f 27/50/66 26/43/59 43/35/43 50/42/57
s 5
f 52/51/67 53/52/68 67/53/69 60/54/70
f 53/52/68 54/55/71 66/56/72 67/53/69
f 54/55/71 55/57/73 65/58/74 66/56/72
f 55/57/73 56/59/75 64/60/76 65/58/74
f 56/59/75 57/61/77 63/147/78 64/60/76
f 57/145/77 58/63/79 62/64/80 63/62/78
f 58/63/79 59/65/81 61/66/82 62/64/80
f 59/65/81 52/51/67 60/54/70 61/66/82
f 84/67/83 85/68/84 86/69/85
f 85/68/84 87/70/86 86/69/85
f 87/70/86 88/71/87 86/69/85
f 88/71/87 89/72/88 86/69/85
f 89/72/88 90/73/89 86/69/85
f 90/73/89 91/74/90 86/69/85
f 91/74/90 92/75/91 86/69/85
f 92/75/91 84/67/83 86/69/85
f 61/66/82 60/54/70 68/76/92 69/77/93
f 62/64/80 61/66/82 69/77/93 70/78/94
f 63/62/78 62/64/80 70/78/94 71/79/95
f 64/60/76 63/147/78 71/143/95 72/80/96
f 65/58/74 64/60/76 72/80/96 73/81/97
f 66/56/72 65/58/74 73/81/97 74/82/98
f 67/53/69 66/56/72 74/82/98 75/83/99
f 60/54/70 67/53/69 75/83/99 68/76/92
f 76/84/100 77/85/101 85/68/84 84/67/83
f 77/85/101 78/86/102 87/70/86 85/68/84
f 78/86/102 79/87/103 88/71/87 87/70/86
f 79/87/103 80/88/104 89/72/88 88/71/87
f 80/88/104 81/89/105 90/73/89 89/72/88
f 81/89/105 82/90/106 91/74/90 90/73/89
f 82/90/106 83/91/107 92/75/91 91/74/90
f 83/91/107 76/84/100 84/67/83 92/75/91
f 93/92/108 94/132/109 96/131/110 95/95/111
f 94/132/109 93/92/108 107/96/112 108/126/113
f 95/95/111 96/131/110 98/130/114 97/99/115
f 97/99/115 98/130/114 100/129/116 99/101/117
f 99/101/117 100/129/116 102/128/118 101/103/119
f 101/103/119 102/128/118 104/127/120 103/144/121
f 103/105/121 104/146/120 106/125/122 105/107/123
f 105/107/123 106/125/122 108/126/113 107/96/112
f 96/94/110 94/93/109 51/108/124
f 98/98/114 96/94/110 51/108/124
f 100/100/116 98/98/114 51/108/124
f 102/102/118 100/100/116 51/108/124
f 104/104/120 102/102/118 51/108/124
f 106/106/122 104/104/120 51/108/124
f 108/97/113 106/106/122 51/108/124
f 94/93/109 108/97/113 51/108/124
f 93/92/108 95/95/111 53/52/68 52/51/67
f 95/95/111 97/99/115 54/55/71 53/52/68
f 97/99/115 99/101/117 55/57/73 54/55/71
f 99/101/117 101/103/119 56/59/75 55/57/73
f 101/103/119 103/144/121 57/61/77 56/59/75
f 103/105/121 105/107/123 58/63/79 57/145/77
f 105/107/123 107/96/112 59/65/81 58/63/79
f 107/96/112 93/92/108 52/51/67 59/65/81
f 116/109/125 109/110/126 76/84/100 83/91/107
f 109/110/126 110/111/127 77/85/101 76/84/100
f 110/111/127 111/112/128 78/86/102 77/85/101
f 111/112/128 112/113/129 79/87/103 78/86/102
f 112/113/129 113/114/130 80/88/104 79/87/103
f 113/114/130 114/115/131 81/89/105 80/88/104
f 114/115/131 115/116/132 82/90/106 81/89/105
f 115/116/132 116/109/125 83/91/107 82/90/106
f 124/117/133 117/118/134 68/76/92 75/83/99
f 117/118/134 118/119/135 69/77/93 68/76/92
f 118/119/135 119/120/136 70/78/94 69/77/93
f 119/120/136 120/121/137 71/79/95 70/78/94
f 120/142/137 121/122/138 72/80/96 71/143/95
f 121/122/138 122/123/139 73/81/97 72/80/96
f 122/123/139 123/124/140 74/82/98 73/81/97
f 123/124/140 124/117/133 75/83/99 74/82/98
f 109/140/126 116/134/125 118/119/135 117/118/134
f 116/134/125 115/133/132 119/120/136 118/119/135
f 115/133/132 114/135/131 120/121/137 119/120/136
f 114/141/131 113/136/130 121/122/138 120/142/137
f 113/136/130 112/137/129 122/123/139 121/122/138
f 112/137/129 111/138/128 123/124/140 122/123/139
f 111/138/128 110/139/127 124/117/133 123/124/140
f 110/139/127 109/140/126 117/118/134 124/117/133
